<svg width="157" height="71" viewBox="0 0 157 71" fill="none" xmlns="http://www.w3.org/2000/svg">
<path d="M25.5921 45.154C25.5921 45.154 25.6897 45.0724 25.7874 44.9418C25.8768 44.8112 25.9989 44.5991 26.1453 44.3134C26.2185 44.1665 26.3405 43.9217 26.5113 43.5789C26.6822 43.2362 26.8774 42.8363 27.1052 42.3875C27.3329 41.9386 27.5689 41.4653 27.8129 40.9756C28.0569 40.486 28.2928 40.0208 28.5206 39.5719C28.7484 39.1231 28.9436 38.7314 29.1145 38.3968C29.2853 38.0622 29.4073 37.8173 29.4805 37.6786C29.6351 37.3848 29.7164 37.1726 29.7164 37.0421C29.7164 36.9115 29.6839 36.8462 29.6188 36.8462H30.9773C30.9285 36.8462 30.9122 36.9115 30.9122 37.0421C30.9122 37.1726 30.9854 37.3848 31.1237 37.6786C31.1888 37.8173 31.3027 38.054 31.4654 38.3968C31.6281 38.7314 31.8233 39.1312 32.0429 39.5719C32.2626 40.0208 32.4985 40.486 32.7425 40.9756C32.9866 41.4653 33.2225 41.9386 33.4503 42.3875C33.678 42.8363 33.8733 43.2362 34.0441 43.5789C34.2149 43.9217 34.3369 44.1665 34.4101 44.3134C34.5647 44.6317 34.7111 44.8439 34.8332 44.9745C34.9552 45.0969 35.0447 45.1622 35.1016 45.1622H33.6618C33.7268 45.1622 33.7594 45.0887 33.7675 44.9337C33.7675 44.7786 33.6943 44.5256 33.5397 44.1747C33.4747 44.0196 33.3933 43.8483 33.3038 43.6524C33.2143 43.4647 33.1493 43.3341 33.1086 43.2688C33.0517 43.1383 33.0028 43.0485 32.954 42.9914C32.9052 42.9342 32.8483 42.9016 32.7669 42.8771C32.6856 42.8526 32.5717 42.8526 32.4171 42.8526H28.1708C27.9919 42.8526 27.8698 42.8608 27.7804 42.8771C27.699 42.8934 27.6339 42.9342 27.5933 42.9914C27.5526 43.0485 27.5038 43.1383 27.4468 43.2525C27.3899 43.3586 27.3167 43.5137 27.2191 43.734C27.1214 43.9544 27.0401 44.1421 26.975 44.3053C26.853 44.6072 26.7961 44.8276 26.8123 44.9581C26.8205 45.0887 26.8611 45.154 26.9262 45.154H25.584H25.5921ZM28.4799 42.2977H32.0755C32.3439 42.2977 32.4904 42.2732 32.5148 42.2242C32.5392 42.1753 32.5229 42.0773 32.4578 41.9223C32.3521 41.7101 32.2219 41.4326 32.0429 41.0817C31.864 40.7389 31.6769 40.3554 31.4735 39.931C31.2701 39.5148 31.0668 39.0904 30.8553 38.6661C30.6438 38.2417 30.4648 37.85 30.294 37.4991H30.2696C30.1069 37.8418 29.9198 38.2254 29.7083 38.6416C29.4968 39.066 29.2934 39.4822 29.09 39.8984C28.8867 40.3146 28.6996 40.6981 28.5206 41.0409C28.3417 41.3837 28.2034 41.6693 28.0895 41.8815C28.0163 42.0284 27.9919 42.1345 28.0163 42.1998C28.0407 42.265 28.1952 42.2977 28.4555 42.2977H28.4799Z" fill="white"/>
<path d="M42.7324 45.2927C41.7888 45.2927 41.0485 45.1622 40.5035 44.8929C39.9585 44.6235 39.5599 44.2155 39.324 43.6687C39.0881 43.1219 38.966 42.4201 38.966 41.5714V37.6623C38.966 37.3685 38.9335 37.1563 38.8766 37.0339C38.8196 36.9115 38.7545 36.8462 38.6895 36.8462H39.991C39.9259 36.8544 39.8609 36.9196 39.8039 37.0421C39.747 37.1645 39.7144 37.3685 39.7144 37.6623V41.5469C39.7144 42.4364 39.8364 43.1056 40.0886 43.5626C40.3408 44.0196 40.6906 44.3298 41.1461 44.493C41.6017 44.6562 42.1386 44.7378 42.7568 44.7378H42.9114C43.3506 44.7378 43.7574 44.697 44.1234 44.6154C44.4895 44.5338 44.7986 44.3787 45.0671 44.1584C45.3274 43.938 45.5307 43.6116 45.6853 43.1954C45.8317 42.7792 45.9049 42.2242 45.9049 41.555V37.6704C45.9049 37.3766 45.8724 37.1645 45.8155 37.0421C45.7585 36.9196 45.6934 36.8544 45.6284 36.8544H46.9299C46.8648 36.8625 46.7998 36.9278 46.7428 37.0584C46.6859 37.1808 46.6533 37.393 46.6533 37.6868V41.5795C46.6533 42.4283 46.5313 43.1301 46.2873 43.6769C46.0432 44.2237 45.6446 44.6317 45.0996 44.901C44.5546 45.1703 43.8143 45.3009 42.8951 45.3009H42.7568L42.7324 45.2927Z" fill="white"/>
<path d="M50.5892 45.1542C50.638 45.1461 50.7356 45.0808 50.8902 44.9502C51.0447 44.8196 51.2562 44.6238 51.5084 44.33C51.6467 44.1749 51.8338 43.9627 52.0778 43.7016C52.3137 43.4404 52.5822 43.1466 52.8832 42.8284C53.1842 42.5101 53.477 42.1918 53.778 41.8654C54.079 41.5389 54.3555 41.2451 54.6077 40.9758C54.3555 40.6984 54.1115 40.4209 53.8512 40.1516C53.599 39.8823 53.3468 39.6048 53.0947 39.3355C52.8425 39.0662 52.5903 38.7887 52.3381 38.5194C52.086 38.2501 51.8338 37.9726 51.5816 37.6951C51.305 37.3932 51.0854 37.1728 50.9146 37.0423C50.7437 36.9117 50.638 36.8464 50.5892 36.8301H52.3137C52.2243 36.8382 52.1836 36.9117 52.1999 37.0423C52.2161 37.1728 52.3463 37.385 52.6066 37.6951C52.7205 37.8175 52.8669 37.9889 53.0621 38.2174C53.2574 38.4459 53.4689 38.6908 53.6885 38.9519C53.9163 39.2131 54.1359 39.4661 54.3474 39.7109C54.5589 39.9557 54.7379 40.1679 54.8843 40.3393C55.0307 40.5188 55.1202 40.6249 55.1609 40.6739H55.1853C55.2097 40.6249 55.2992 40.5188 55.4456 40.3556C55.592 40.1924 55.771 39.9802 55.9825 39.7354C56.194 39.4905 56.4136 39.2375 56.6495 38.9764C56.8773 38.7152 57.097 38.4623 57.3003 38.2338C57.5037 38.0052 57.6664 37.8175 57.7803 37.6625C58.0162 37.3687 58.1463 37.1565 58.1707 37.0341C58.187 36.9117 58.1545 36.8382 58.0731 36.8301H59.7001C59.6431 36.8301 59.5374 36.8954 59.3828 37.0178C59.2282 37.1402 59.0249 37.3524 58.7727 37.6462C58.6425 37.8012 58.4554 38.0134 58.2195 38.2746C57.9836 38.5357 57.7152 38.8295 57.4142 39.1396C57.1214 39.4579 56.8204 39.768 56.5194 40.0863C56.2184 40.4046 55.9418 40.6984 55.6978 40.9677C55.95 41.237 56.2184 41.5308 56.5113 41.8572C56.8041 42.1836 57.097 42.5019 57.3817 42.812C57.6664 43.1303 57.9267 43.4159 58.1626 43.6689C58.3985 43.9301 58.5775 44.1341 58.6914 44.281C58.9517 44.5666 59.1632 44.7788 59.334 44.9094C59.5048 45.04 59.6187 45.1216 59.6838 45.1379H58.1057C58.1951 45.1297 58.2358 45.0563 58.2277 44.9257C58.2195 44.7951 58.0813 44.583 57.8128 44.2728C57.7071 44.1504 57.5606 43.979 57.3573 43.7587C57.1539 43.5384 56.9343 43.3017 56.6902 43.0405C56.4543 42.7875 56.2184 42.5346 55.9988 42.2897C55.7791 42.0449 55.592 41.8409 55.4293 41.6695C55.2748 41.4981 55.1772 41.392 55.1365 41.3431H55.1121C55.1121 41.3431 54.9982 41.4818 54.8518 41.6532C54.7053 41.8246 54.5264 42.0286 54.3067 42.2653C54.0871 42.5019 53.8675 42.7467 53.6397 43.0079C53.4119 43.269 53.1923 43.5057 52.9808 43.7342C52.7693 43.9627 52.6066 44.1504 52.4764 44.2973C52.208 44.5993 52.0697 44.8196 52.0616 44.942C52.0534 45.0644 52.0941 45.1297 52.1836 45.1297H50.5566L50.5892 45.1542Z" fill="white"/>
<path d="M68.9573 45.154C68.9573 45.154 69.055 45.0724 69.1526 44.9418C69.2502 44.8112 69.3641 44.5991 69.5105 44.3134C69.5837 44.1665 69.7057 43.9217 69.8766 43.5789C70.0474 43.2362 70.2426 42.8363 70.4704 42.3875C70.6982 41.9386 70.9341 41.4653 71.1781 40.9756C71.4222 40.486 71.6581 40.0208 71.8859 39.5719C72.1136 39.1231 72.3089 38.7314 72.4797 38.3968C72.6505 38.0622 72.7725 37.8173 72.8457 37.6786C73.0003 37.3848 73.0816 37.1726 73.0816 37.0421C73.0816 36.9115 73.0491 36.8462 72.984 36.8462H74.3425C74.2937 36.8462 74.2775 36.9115 74.2775 37.0421C74.2775 37.1726 74.3507 37.3848 74.489 37.6786C74.554 37.8173 74.6679 38.054 74.8306 38.3968C74.9933 38.7314 75.1885 39.1312 75.4082 39.5719C75.6278 40.0208 75.8637 40.486 76.1078 40.9756C76.3518 41.4653 76.5877 41.9386 76.8155 42.3875C77.0433 42.8363 77.2385 43.2362 77.4093 43.5789C77.5802 43.9217 77.7022 44.1665 77.7754 44.3134C77.9299 44.6317 78.0764 44.8439 78.1984 44.9745C78.3204 45.0969 78.4099 45.1622 78.4668 45.1622H77.027C77.0921 45.1622 77.1246 45.0887 77.1327 44.9337C77.1409 44.7786 77.0595 44.5256 76.905 44.1747C76.8399 44.0196 76.7585 43.8483 76.6691 43.6524C76.5796 43.4565 76.5145 43.3341 76.4738 43.2688C76.4169 43.1383 76.3681 43.0485 76.3193 42.9914C76.2705 42.9342 76.2135 42.9016 76.1322 42.8771C76.0508 42.8608 75.9369 42.8526 75.7824 42.8526H71.5361C71.3571 42.8526 71.2351 42.8608 71.1456 42.8771C71.0642 42.8934 70.9992 42.9342 70.9585 42.9914C70.9178 43.0485 70.869 43.1383 70.8121 43.2525C70.7551 43.3586 70.6819 43.5137 70.5843 43.734C70.4867 43.9544 70.4053 44.1421 70.3403 44.3053C70.2182 44.6072 70.1613 44.8276 70.1776 44.9581C70.1857 45.0887 70.2264 45.154 70.2914 45.154H68.9492H68.9573ZM71.8452 42.2977H75.4407C75.7092 42.2977 75.8556 42.2732 75.88 42.2242C75.9044 42.1753 75.8881 42.0773 75.8231 41.9223C75.7173 41.7101 75.5871 41.4326 75.4082 41.0817C75.2292 40.7389 75.0421 40.3554 74.8388 39.931C74.6354 39.5148 74.432 39.0904 74.2205 38.6661C74.009 38.2417 73.83 37.85 73.6592 37.4991H73.6348C73.4721 37.8418 73.285 38.2254 73.0735 38.6416C72.862 39.066 72.6586 39.4822 72.4553 39.8984C72.2519 40.3146 72.0648 40.6981 71.8859 41.0409C71.7069 41.3837 71.5686 41.6693 71.4547 41.8815C71.3815 42.0284 71.3571 42.1345 71.3815 42.1998C71.4059 42.265 71.5605 42.2977 71.8208 42.2977H71.8452Z" fill="white"/>
<path d="M82.3405 45.1544C82.4056 45.1544 82.4706 45.0891 82.5276 44.9585C82.5845 44.8279 82.6171 44.6157 82.6171 44.3219V37.6708C82.6171 37.377 82.5845 37.1648 82.5195 37.0424C82.4544 36.92 82.3893 36.8465 82.3242 36.8384H86.5705C87.4247 36.8384 88.0917 36.9363 88.5717 37.124C89.0516 37.3117 89.3933 37.5892 89.5885 37.9564C89.7838 38.3237 89.8895 38.7807 89.8895 39.3193C89.8895 39.8579 89.7756 40.266 89.5478 40.5924C89.3201 40.9188 89.0191 41.18 88.653 41.3514C88.287 41.5309 87.8884 41.6452 87.4654 41.6941V41.7513C88.0104 41.8981 88.5229 42.2001 89.011 42.6653C89.499 43.1304 89.9139 43.6283 90.2556 44.175C90.4752 44.5178 90.6704 44.7626 90.8494 44.9177C91.0284 45.0727 91.1504 45.1462 91.2399 45.1462H89.5804C89.6536 45.1462 89.6943 45.0891 89.7105 44.9748C89.7268 44.8606 89.6536 44.6647 89.499 44.3872C89.2143 43.8731 88.8808 43.4161 88.5147 43.0244C88.1405 42.6326 87.685 42.3307 87.1562 42.1185C86.6194 41.8981 85.9604 41.7921 85.1795 41.7921H83.9186C83.6339 41.7921 83.4712 41.8165 83.4224 41.8655C83.3736 41.9145 83.3492 42.0287 83.3492 42.2083V44.3138C83.3492 44.6076 83.3817 44.8198 83.4468 44.9503C83.5119 45.0809 83.577 45.1462 83.642 45.1462H82.3568L82.3405 45.1544ZM83.9024 41.2616H86.416C87.3189 41.2616 88.0023 41.0984 88.4578 40.7801C88.9215 40.4537 89.1492 39.9722 89.1492 39.3275C89.1492 38.9276 89.076 38.5848 88.9296 38.2992C88.7832 38.0136 88.4985 37.7932 88.0836 37.63C87.6687 37.4749 87.0668 37.3933 86.2696 37.3933H83.8942C83.6095 37.3933 83.4468 37.4096 83.398 37.4341C83.3492 37.4586 83.3248 37.5647 83.3248 37.7524V40.8862C83.3248 41.0739 83.3492 41.18 83.398 41.2126C83.4468 41.2453 83.6095 41.2616 83.8942 41.2616H83.9024Z" fill="white"/>
<path d="M95.2578 45.1542C95.3229 45.1542 95.388 45.0889 95.453 44.9584C95.5181 44.8278 95.5507 44.6156 95.5507 44.3218V37.6707C95.5507 37.3769 95.5181 37.1647 95.453 37.0423C95.388 36.9198 95.3229 36.8464 95.2578 36.8382H96.5431C96.5431 36.8382 96.5024 36.9198 96.5431 37.0504C96.5838 37.181 96.6733 37.4013 96.8359 37.6951C96.9092 37.8175 97.0393 38.0379 97.2264 38.3725C97.4135 38.7071 97.6413 39.107 97.9179 39.5803C98.1863 40.0536 98.4792 40.5596 98.7964 41.0982C99.1137 41.6369 99.4309 42.1836 99.7482 42.7386C100.074 43.2935 100.375 43.824 100.659 44.3218H100.676C100.96 43.824 101.261 43.2935 101.587 42.7386C101.912 42.1836 102.229 41.6369 102.538 41.0982C102.856 40.5596 103.14 40.0536 103.417 39.5803C103.685 39.107 103.921 38.7071 104.125 38.3643C104.328 38.0216 104.458 37.7931 104.531 37.6625C104.718 37.3687 104.824 37.1565 104.849 37.0259C104.873 36.8954 104.865 36.8301 104.824 36.8301H106.11C106.044 36.8301 105.979 36.8954 105.914 37.0259C105.849 37.1565 105.817 37.3687 105.817 37.6788V44.3218C105.817 44.6156 105.849 44.8278 105.914 44.9584C105.979 45.0889 106.044 45.1542 106.11 45.1542H104.824C104.889 45.1542 104.954 45.0889 105.011 44.9584C105.068 44.8278 105.101 44.6156 105.101 44.3218V38.1685H105.076C104.824 38.5928 104.564 39.0498 104.271 39.5395C103.978 40.0292 103.702 40.5188 103.417 41.0166C103.132 41.5144 102.864 41.9796 102.612 42.4203C102.359 42.861 102.132 43.2446 101.936 43.5792C101.741 43.9138 101.587 44.1586 101.489 44.33C101.31 44.6319 101.229 44.8523 101.237 44.9747C101.245 45.0971 101.277 45.1624 101.351 45.1624H99.9922C100.065 45.1624 100.106 45.0971 100.114 44.9665C100.122 44.8359 100.033 44.6238 99.8539 44.33C99.7726 44.1831 99.6343 43.9464 99.4472 43.62C99.2601 43.2935 99.0405 42.9181 98.7883 42.4856C98.5361 42.0531 98.2758 41.5879 97.9829 41.0819C97.6982 40.5841 97.4135 40.0863 97.1288 39.5885C96.8441 39.0907 96.5756 38.6173 96.3235 38.1766H96.2828V44.33C96.2828 44.6238 96.3153 44.8359 96.3804 44.9665C96.4455 45.0971 96.5106 45.1624 96.5756 45.1624H95.2659L95.2578 45.1542Z" fill="white"/>
<path d="M110.9 45.1544C110.965 45.1544 111.031 45.0891 111.096 44.9585C111.161 44.8279 111.193 44.6157 111.193 44.3219V37.6708C111.193 37.377 111.161 37.1648 111.096 37.0424C111.031 36.92 110.965 36.8465 110.9 36.8384H118.392V36.9771L118.669 37.6137C118.441 37.5647 118.035 37.5157 117.457 37.4668C116.879 37.4178 116.18 37.3933 115.358 37.3933H112.487C112.21 37.3933 112.047 37.4178 111.999 37.4586C111.95 37.4994 111.925 37.6218 111.925 37.8095V40.0864C111.925 40.2904 111.95 40.4129 111.999 40.4455C112.047 40.4863 112.21 40.5026 112.479 40.5026H115.301C115.838 40.5026 116.269 40.4863 116.595 40.4618C116.92 40.4373 117.132 40.4047 117.237 40.3639C117.197 40.3802 117.156 40.421 117.115 40.4781C117.067 40.5353 117.034 40.6169 117.001 40.7067C116.969 40.7964 116.961 40.9188 116.961 41.0494H112.487C112.218 41.0494 112.064 41.0657 112.007 41.0984C111.95 41.131 111.934 41.2534 111.934 41.4656V44.1669C111.934 44.3791 111.958 44.5015 112.007 44.5423C112.056 44.5831 112.218 44.5994 112.487 44.5994H117.05C117.587 44.5994 118.018 44.5668 118.344 44.5096C118.669 44.4525 118.889 44.3872 118.986 44.3219L118.71 44.9993V45.1544H110.933H110.9Z" fill="white"/>
<path d="M126.559 45.2929C125.583 45.2929 124.77 45.2276 124.119 45.1052C123.468 44.9828 123.021 44.8603 122.785 44.7379V44.5992L122.646 43.8076C122.769 43.9382 122.988 44.0769 123.314 44.2238C123.639 44.3707 124.078 44.4931 124.623 44.591C125.168 44.689 125.819 44.7379 126.584 44.7379C127.413 44.7379 128.08 44.6726 128.577 44.5502C129.081 44.4278 129.439 44.232 129.667 43.9708C129.895 43.7097 130.008 43.3751 130.008 42.9589C130.008 42.5426 129.886 42.2489 129.65 42.0203C129.415 41.7918 129.016 41.6123 128.471 41.4736C127.926 41.3348 127.186 41.2124 126.266 41.0982C125.372 40.9839 124.672 40.8289 124.16 40.6248C123.647 40.4208 123.289 40.1678 123.086 39.8659C122.882 39.5639 122.777 39.213 122.777 38.8213C122.777 38.4295 122.882 38.0949 123.094 37.7685C123.305 37.4421 123.688 37.1809 124.233 36.9851C124.778 36.7892 125.551 36.6831 126.551 36.6831C127.552 36.6831 128.284 36.7484 128.87 36.8708C129.455 36.9932 129.838 37.1156 130.008 37.238V37.3768L130.147 38.0705C130.008 37.948 129.781 37.8256 129.455 37.6951C129.13 37.5645 128.723 37.4584 128.227 37.3686C127.731 37.2789 127.145 37.238 126.486 37.238C125.746 37.238 125.16 37.3033 124.721 37.4339C124.282 37.5645 123.972 37.7359 123.777 37.9644C123.59 38.1847 123.492 38.4459 123.492 38.7397C123.492 39.1069 123.606 39.4089 123.826 39.6455C124.046 39.8822 124.412 40.0699 124.924 40.2168C125.437 40.3637 126.12 40.4861 126.974 40.584C127.975 40.6983 128.756 40.8452 129.293 41.0329C129.838 41.2206 130.212 41.4736 130.415 41.7837C130.627 42.0938 130.724 42.4855 130.724 42.967C130.724 43.269 130.667 43.5628 130.553 43.8484C130.44 44.134 130.236 44.3789 129.935 44.591C129.642 44.8032 129.219 44.9746 128.674 45.097C128.129 45.2194 127.422 45.2847 126.551 45.2847L126.559 45.2929Z" fill="white"/>
<path d="M25.877 58.4648C25.9502 58.4648 26.0234 58.3913 26.1047 58.2363C26.1779 58.0894 26.2186 57.8364 26.2186 57.4936V49.7734C26.2186 49.4306 26.1779 49.1858 26.1047 49.0389C26.0315 48.892 25.9583 48.8186 25.877 48.8022H30.9123C31.856 48.8022 32.645 48.892 33.2877 49.0797C33.9303 49.2593 34.4428 49.5122 34.8333 49.8387C35.2237 50.157 35.5166 50.5242 35.72 50.9404C35.9233 51.3566 36.0616 51.7891 36.1267 52.2543C36.1999 52.7113 36.2324 53.1847 36.2324 53.6498C36.2324 54.0824 36.1999 54.5231 36.1267 54.9801C36.0535 55.4371 35.9152 55.8696 35.7118 56.2858C35.5003 56.702 35.2075 57.0693 34.817 57.3957C34.4265 57.7221 33.9141 57.9833 33.2795 58.1791C32.645 58.375 31.856 58.4648 30.9123 58.4648H25.877ZM29.3261 56.6775H29.985C30.9042 56.6775 31.6445 56.5959 32.1976 56.4409C32.7508 56.2858 33.1575 56.0002 33.4178 55.584C33.6781 55.1678 33.8002 54.5639 33.8002 53.7641V53.4785C33.8002 52.6379 33.6863 52.0258 33.4504 51.6178C33.2145 51.2179 32.8159 50.9486 32.2627 50.818C31.7095 50.6874 30.9449 50.6221 29.985 50.6221H29.3261C29.017 50.6221 28.8299 50.6385 28.7729 50.6793C28.716 50.7201 28.6834 50.8506 28.6834 51.071V56.1879C28.6834 56.4245 28.716 56.5633 28.7729 56.6041C28.8299 56.6449 29.017 56.6694 29.3261 56.6694V56.6775Z" fill="white"/>
<path d="M41.1864 50.7443L40.8691 50.1812C41.0806 50.0914 41.2921 49.9445 41.5118 49.7323C41.7233 49.5201 41.829 49.259 41.829 48.957C41.829 48.6551 41.7558 48.451 41.6013 48.3368C41.4467 48.2225 41.2515 48.1654 40.9912 48.1654V47.7655C40.9912 47.4554 41.105 47.2269 41.3247 47.0882C41.5525 46.9494 41.8209 46.876 42.1463 46.876C42.6588 46.876 43.0248 47.0392 43.2526 47.3738C43.4804 47.7084 43.5861 48.0756 43.5861 48.4837C43.5861 48.9244 43.456 49.3079 43.2038 49.6425C42.9435 49.9771 42.6344 50.2383 42.2683 50.426C41.9022 50.6137 41.5362 50.7198 41.1864 50.7361V50.7443Z" fill="white"/>
<path d="M47.5566 58.4644C47.6136 58.4644 47.6949 58.391 47.8088 58.2359C47.9227 58.089 48.0529 57.836 48.1993 57.477C48.2725 57.3137 48.3945 57.0444 48.5572 56.6445C48.7199 56.2528 48.9151 55.7958 49.1348 55.2817C49.3544 54.7594 49.5822 54.2207 49.8262 53.6495C50.0703 53.0782 50.298 52.5314 50.5177 52.0091C50.7373 51.4868 50.9325 51.0217 51.0952 50.6299C51.2579 50.2301 51.38 49.9526 51.4369 49.7812C51.5752 49.4384 51.6484 49.1936 51.6647 49.0386C51.6728 48.8917 51.6565 48.8101 51.5996 48.8101H55.0975C55.0569 48.8101 55.0406 48.8835 55.0487 49.0304C55.0568 49.1773 55.1382 49.4221 55.2765 49.7812C55.3416 49.9526 55.4555 50.2301 55.61 50.6218C55.7727 51.0135 55.9598 51.4705 56.1713 51.9847C56.3828 52.507 56.6106 53.0456 56.8465 53.6168C57.0824 54.1881 57.302 54.7267 57.5217 55.249C57.7332 55.7713 57.9284 56.2283 58.0992 56.6201C58.2701 57.0118 58.3921 57.2974 58.4653 57.4688C58.628 57.8197 58.7825 58.0727 58.929 58.2278C59.0754 58.3828 59.1893 58.4563 59.2625 58.4563H55.6263C55.7158 58.4481 55.7808 58.3583 55.8459 58.2033C55.911 58.0482 55.9029 57.8034 55.8459 57.4688C55.8378 57.3953 55.8215 57.3301 55.8134 57.2811C55.8052 57.2321 55.7808 57.1587 55.7483 57.0607C55.7076 56.8975 55.6588 56.7833 55.6019 56.718C55.5449 56.6445 55.4636 56.6119 55.3334 56.5956C55.2114 56.5874 55.008 56.5793 54.7315 56.5793H51.9738C51.6891 56.5793 51.4694 56.5793 51.3311 56.6037C51.1929 56.6282 51.0952 56.6609 51.0464 56.7262C50.9895 56.7914 50.9488 56.8975 50.9163 57.0444C50.9081 57.1016 50.8919 57.1668 50.8756 57.2566C50.8593 57.3464 50.8431 57.4117 50.8349 57.4688C50.7617 57.8116 50.7373 58.0564 50.778 58.2114C50.8187 58.3583 50.8675 58.4399 50.9325 58.4563H47.5648L47.5566 58.4644ZM52.3805 54.8328H54.2596C54.5688 54.8328 54.7396 54.8083 54.7721 54.7512C54.8047 54.6941 54.7884 54.5798 54.7233 54.4003C54.585 54.0575 54.4467 53.7066 54.3085 53.3475C54.1702 52.9885 54.04 52.6375 53.918 52.2948C53.796 51.952 53.6902 51.6337 53.6007 51.3399C53.5113 51.0461 53.4299 50.7932 53.3648 50.5891H53.3323C53.1859 50.989 53.0313 51.4052 52.8686 51.8459C52.7059 52.2866 52.5595 52.6947 52.4212 53.0701C52.2829 53.4455 52.1284 53.878 51.9575 54.3595C51.8843 54.5309 51.8518 54.6533 51.8762 54.7267C51.9006 54.8002 52.0714 54.841 52.3887 54.841L52.3805 54.8328Z" fill="white"/>
<path d="M63.4434 58.4648C63.5166 58.4648 63.5898 58.3913 63.6711 58.2363C63.7443 58.0894 63.785 57.8364 63.785 57.4936V49.7734C63.785 49.4306 63.7443 49.1858 63.6711 49.0389C63.5979 48.892 63.5247 48.8186 63.4434 48.8022H66.5834C66.5101 48.8022 66.4369 48.8757 66.3556 49.0308C66.2824 49.1777 66.2417 49.4306 66.2417 49.7897V56.1716C66.2417 56.4082 66.2742 56.547 66.3312 56.5959C66.3881 56.6449 66.5834 56.6694 66.9006 56.6694H70.7646C71.3828 56.6694 71.8872 56.5959 72.2614 56.449C72.6356 56.3021 72.8878 56.1634 73.0098 56.0247L72.5298 57.9506V58.4485H63.4434V58.4648Z" fill="white"/>
<path d="M82.5183 58.6278C81.3551 58.6278 80.322 58.5707 79.4271 58.4646C78.5323 58.3585 77.8815 58.2524 77.4911 58.1464V57.6649L77.1738 55.6246C77.3772 55.796 77.7107 55.9755 78.1825 56.1714C78.6543 56.3673 79.2563 56.5305 79.9966 56.6611C80.7368 56.7916 81.591 56.8651 82.559 56.8651C83.161 56.8651 83.6165 56.8243 83.9338 56.7427C84.251 56.6611 84.4707 56.5468 84.5927 56.3999C84.7066 56.253 84.7716 56.0735 84.7716 55.8695C84.7716 55.6083 84.6822 55.4124 84.5113 55.2655C84.3405 55.1187 84.0314 54.9962 83.5921 54.9065C83.1528 54.8085 82.5183 54.7106 81.7049 54.6045C80.7287 54.4739 79.9234 54.3026 79.2644 54.0741C78.6137 53.8456 78.1256 53.5273 77.8083 53.1192C77.4911 52.703 77.3284 52.1562 77.3284 51.4707C77.3284 50.9158 77.4748 50.4261 77.7595 50.0099C78.0442 49.5937 78.5161 49.2673 79.1506 49.0306C79.7851 48.7939 80.6392 48.6797 81.6967 48.6797C82.8112 48.6797 83.7629 48.7368 84.552 48.8429C85.3411 48.949 85.8861 49.0551 86.1871 49.1612V49.6427L86.667 51.4136C86.3986 51.2749 86.0163 51.128 85.5119 50.9811C85.0076 50.8342 84.43 50.7036 83.7629 50.6057C83.104 50.5077 82.3882 50.4506 81.6154 50.4506C81.1354 50.4506 80.7612 50.4914 80.4928 50.573C80.2243 50.6546 80.0372 50.7689 79.9234 50.9076C79.8095 51.0464 79.7525 51.2341 79.7525 51.4462C79.7525 51.7074 79.8501 51.9114 80.0454 52.0665C80.2406 52.2215 80.566 52.3521 81.0134 52.4419C81.4608 52.5398 82.0628 52.6296 82.8275 52.7193C83.9907 52.8499 84.8937 53.0376 85.52 53.2988C86.1464 53.5599 86.5857 53.8864 86.8297 54.2862C87.0738 54.6861 87.1877 55.1758 87.1877 55.7389C87.1877 56.2285 87.0982 56.6611 86.9111 57.0365C86.724 57.4119 86.4474 57.7057 86.0732 57.9423C85.699 58.179 85.2109 58.3585 84.6171 58.4728C84.0233 58.587 83.3237 58.6523 82.5102 58.6523L82.5183 58.6278Z" fill="white"/>
<path d="M91.1582 58.4644C91.2151 58.4644 91.2965 58.391 91.4104 58.2359C91.5243 58.089 91.6544 57.836 91.8008 57.477C91.8741 57.3137 91.9961 57.0444 92.1588 56.6445C92.3215 56.2528 92.5167 55.7958 92.7363 55.2817C92.956 54.7594 93.1837 54.2207 93.4278 53.6495C93.6718 53.0782 93.8996 52.5314 94.1192 52.0091C94.3389 51.4868 94.5341 51.0217 94.6968 50.6299C94.8595 50.2382 94.9815 49.9526 95.0385 49.7812C95.1768 49.4384 95.25 49.1936 95.2662 49.0386C95.2744 48.8917 95.2581 48.8101 95.2012 48.8101H98.6991C98.6584 48.8101 98.6421 48.8835 98.6503 49.0304C98.6584 49.1773 98.7398 49.4221 98.8781 49.7812C98.9431 49.9526 99.057 50.2301 99.2116 50.6218C99.3743 51.0135 99.5614 51.4705 99.7729 51.9847C99.9844 52.507 100.212 53.0456 100.448 53.6168C100.684 54.1881 100.904 54.7267 101.123 55.249C101.335 55.7713 101.53 56.2283 101.701 56.6201C101.872 57.0199 101.994 57.2974 102.067 57.4688C102.23 57.8197 102.384 58.0727 102.531 58.2278C102.677 58.3747 102.791 58.4563 102.864 58.4563H99.2278C99.3173 58.4481 99.3824 58.3583 99.4475 58.2033C99.5126 58.0482 99.5044 57.8034 99.4475 57.4688C99.4393 57.3953 99.4231 57.3301 99.4149 57.2811C99.4068 57.2321 99.3824 57.1587 99.3499 57.0607C99.3092 56.8975 99.2604 56.7833 99.2034 56.718C99.1465 56.6445 99.0652 56.6119 98.935 56.5956C98.813 56.5874 98.6096 56.5793 98.333 56.5793H95.5754C95.2906 56.5793 95.071 56.5793 94.9327 56.6037C94.7944 56.6282 94.6968 56.6609 94.648 56.7262C94.5911 56.7914 94.5504 56.8975 94.5178 57.0444C94.5097 57.1016 94.4934 57.1668 94.4772 57.2566C94.4609 57.3464 94.4446 57.4117 94.4365 57.4688C94.3633 57.8116 94.3389 58.0564 94.3795 58.2114C94.4202 58.3583 94.469 58.4399 94.5341 58.4563H91.1663L91.1582 58.4644ZM95.9821 54.8328H97.8612C98.1703 54.8328 98.3412 54.8083 98.3737 54.7512C98.4062 54.6941 98.39 54.5798 98.3249 54.4003C98.1866 54.0575 98.0483 53.7066 97.91 53.3475C97.7717 52.9885 97.6416 52.6375 97.5195 52.2948C97.3975 51.952 97.2918 51.6337 97.2023 51.3399C97.1128 51.0461 97.0315 50.7932 96.9664 50.5891H96.9339C96.7874 50.989 96.6329 51.4052 96.4702 51.8459C96.3075 52.2866 96.1611 52.6947 96.0228 53.0701C95.8845 53.4455 95.7299 53.878 95.5591 54.3595C95.4859 54.5309 95.4533 54.6533 95.4777 54.7267C95.5021 54.8002 95.673 54.841 95.9902 54.841L95.9821 54.8328Z" fill="white"/>
<path d="M112.382 58.6279C110.543 58.6279 109.168 58.228 108.257 57.4283C107.346 56.6285 106.891 55.3636 106.891 53.6416C106.891 52.646 107.078 51.7727 107.452 51.0301C107.826 50.2875 108.42 49.6999 109.233 49.2837C110.047 48.8675 111.096 48.6553 112.39 48.6553C113.407 48.6553 114.253 48.7124 114.92 48.8185C115.595 48.9246 116.05 49.0307 116.278 49.1368V49.6183L116.595 51.3892C116.392 51.2504 116.091 51.1035 115.692 50.9567C115.294 50.8098 114.814 50.6792 114.261 50.5813C113.708 50.4833 113.089 50.4262 112.414 50.4262C111.674 50.4262 111.08 50.5404 110.624 50.7771C110.169 51.0138 109.835 51.3729 109.632 51.8462C109.421 52.3195 109.323 52.9234 109.323 53.6416C109.323 54.3598 109.429 54.9555 109.632 55.4288C109.844 55.9022 110.201 56.2531 110.722 56.4898C111.243 56.7264 111.959 56.8407 112.878 56.8407C113.797 56.8407 114.562 56.7101 115.18 56.4571C115.798 56.196 116.213 55.9511 116.441 55.7145V56.196L116.603 57.82C116.425 57.9914 115.977 58.1709 115.278 58.3504C114.578 58.53 113.61 58.6279 112.382 58.6279Z" fill="white"/>
<path d="M121.395 58.4648C121.468 58.4648 121.541 58.3913 121.622 58.2363C121.696 58.0894 121.736 57.8364 121.736 57.4936V49.7734C121.736 49.4306 121.696 49.1858 121.622 49.0389C121.549 48.892 121.476 48.8186 121.395 48.8022H130.758V49.2837L131.075 51.1526C130.806 51.0383 130.335 50.9078 129.668 50.7772C128.992 50.6466 128.179 50.5732 127.227 50.5732H124.852C124.535 50.5732 124.339 50.5977 124.282 50.6466C124.225 50.6956 124.193 50.8343 124.193 51.0547V52.2462C124.193 52.4828 124.225 52.6216 124.282 52.6624C124.339 52.7032 124.526 52.7276 124.836 52.7276H127.146C127.764 52.7276 128.268 52.695 128.643 52.6216C129.025 52.5481 129.269 52.4828 129.391 52.4012C129.35 52.6052 129.301 52.8419 129.245 53.1112C129.188 53.3805 129.147 53.6335 129.114 53.8865C129.082 54.1313 129.066 54.3353 129.066 54.4986H124.836C124.526 54.4986 124.339 54.5149 124.282 54.5557C124.225 54.5965 124.193 54.7352 124.193 54.9801V56.1716C124.193 56.4164 124.217 56.5633 124.274 56.6041C124.331 56.6449 124.518 56.6694 124.836 56.6694H129.163C129.781 56.6694 130.286 56.5959 130.66 56.449C131.034 56.3021 131.286 56.1634 131.408 56.0247L131.091 57.9506V58.4485H121.395V58.4648Z" fill="white"/>
<path d="M91.5488 15.5548L85.9684 7.41016H71.0737L65.4933 15.5548C64.3382 17.2441 64.3382 19.2598 65.4933 20.9491L71.0737 29.0937H85.9684L91.5488 20.9491C92.7039 19.2598 92.7039 17.2441 91.5488 15.5548ZM90.7272 20.59L85.4152 28.3511H71.635L66.323 20.59C65.3225 19.1292 65.3225 17.3746 66.323 15.9138L71.635 8.1528H85.4152L90.7272 15.9138C91.7278 17.3746 91.7278 19.1292 90.7272 20.59Z" fill="white"/>
<path d="M83.8461 26.6454C83.7079 26.3761 83.5533 25.9191 83.3906 25.2825C83.3093 24.9724 83.1791 24.4583 83.0083 23.7401C82.8374 23.022 82.6259 22.1895 82.39 21.2429C82.1541 20.2962 81.9101 19.3087 81.666 18.2968C81.422 17.2767 81.178 16.2974 80.9502 15.3507C80.7224 14.404 80.5191 13.5716 80.3564 12.8698C80.1937 12.1598 80.0716 11.662 79.9984 11.3763C79.8683 10.7561 79.7951 10.3072 79.7869 10.0379C79.7788 9.76862 79.7869 9.62988 79.8357 9.62988H77.1431C77.192 9.62988 77.2164 9.76862 77.2082 10.0379C77.2001 10.3072 77.1187 10.7561 76.9804 11.3763C76.9072 11.6701 76.7852 12.1679 76.6144 12.8861C76.4436 13.6043 76.2402 14.4367 76.0043 15.3833C75.7765 16.33 75.5325 17.3256 75.2722 18.3621C75.0118 19.3985 74.7678 20.3941 74.5319 21.3408C74.296 22.2875 74.0926 23.1117 73.9137 23.8136C73.7428 24.5072 73.6127 25.0051 73.5476 25.2989C73.3849 25.9354 73.2466 26.3924 73.149 26.6617C73.0432 26.931 72.9782 27.0698 72.9375 27.0698H75.5243C75.4511 27.0698 75.3942 26.931 75.3535 26.6617C75.3128 26.3924 75.3372 25.9354 75.4267 25.2989C75.4511 25.103 75.4755 24.8908 75.5162 24.6623C75.5569 24.4256 75.9636 22.7934 75.9636 22.7934H81.0478C81.0478 22.7934 81.3732 24.344 81.422 24.6378C81.4708 24.9316 81.5115 25.152 81.5278 25.307C81.6172 25.9109 81.6335 26.3434 81.5684 26.6128C81.5033 26.8821 81.4139 27.0371 81.3163 27.0779H84.1634C84.0902 27.0779 83.9844 26.9392 83.8461 26.6699V26.6454ZM76.2809 21.1123L78.5342 12.5433L80.6329 21.1123H76.2809Z" fill="white"/>
<path d="M75.5966 9.62193H72.6925L67.7384 17.1789C67.2422 17.9379 67.2666 18.8111 67.8035 19.5538L68.8691 21.088L69.4304 19.3579L69.3491 19.26C69.0156 18.8438 68.9912 18.3051 69.284 17.8726C69.4304 17.6523 69.5606 17.4564 69.5606 17.4564L69.5931 17.4074L71.8139 18.0195L70.3741 23.2588L71.3746 24.6951L71.6268 25.0624L71.6838 25.144C71.6838 25.144 71.6594 25.0216 71.6838 24.9155C71.7163 24.7849 72.0905 23.4792 72.1556 23.2343C73.0178 19.97 74.7017 12.7884 75.5477 9.94021C75.5477 9.90756 75.5803 9.84228 75.5884 9.81779C75.5966 9.79331 75.621 9.73618 75.6454 9.68722C75.6616 9.64641 75.7023 9.61377 75.7348 9.61377H75.5884L75.5966 9.62193ZM72.1881 16.5016L70.5286 16.0854L73.327 11.6377L72.1881 16.5016Z" fill="white"/>
<path d="M81.307 9.62158C81.307 9.62158 81.3802 9.65423 81.3964 9.69503C81.4127 9.744 81.4371 9.80112 81.4534 9.82561C81.4697 9.85009 81.4859 9.92354 81.4941 9.94802C82.3401 12.788 84.024 19.9778 84.8862 23.2422C84.9513 23.487 85.3336 24.7846 85.358 24.9233C85.3825 25.0294 85.358 25.1355 85.358 25.1518L85.415 25.0702L85.6672 24.703L86.6677 23.2666L85.2279 18.0273L87.4487 17.4153L87.4812 17.4642C87.4812 17.4642 87.6114 17.6519 87.7578 17.8804C88.0506 18.3211 88.0262 18.8516 87.6927 19.2678L87.6114 19.3657L88.1727 21.0958L89.2383 19.5616C89.7752 18.8189 89.8077 17.9457 89.3034 17.1868L84.3493 9.62158H81.4453H81.2988H81.307ZM83.723 11.6373L86.5213 16.085L84.8618 16.5012L83.723 11.6373Z" fill="white"/>
</svg>
