<?xml version="1.0" encoding="UTF-8"?>
<svg id="Calque_1" data-name="Calque 1" xmlns="http://www.w3.org/2000/svg" version="1.1" viewBox="0 0 1204 720">
  <defs>
    <style>
      .cls-1 {
        fill: #ff0020;
      }

      .cls-1, .cls-2, .cls-3, .cls-4, .cls-5, .cls-6, .cls-7 {
        stroke-width: 0px;
      }

      .cls-2 {
        fill: #1a1a1a;
      }

      .cls-3 {
        fill: #f5f5f5;
      }

      .cls-4 {
        fill: #0da05d;
      }

      .cls-5 {
        fill: #ff73ff;
      }

      .cls-6 {
        fill: #b6b6b6;
      }

      .cls-7 {
        fill: #5757ff;
      }
    </style>
  </defs>
  <path class="cls-1" d="M215.9,242.1c-.5-.3-.8-.4-.9-.4-.8-.3-1.6,0-1.9.9-.3.8.1,1.6.9,1.9,0,0,4.6,1.8,6.3,6.4.3.8,1.1,1.2,1.9.9.8-.3,1.2-1.1.9-1.9-1.7-4.6-5.5-6.9-7.3-7.8h0Z"/>
  <path class="cls-1" d="M278.5,273.4c-1.7-.9-5.9-2.5-10.5-1.1-.8.2-1.2,1.1-.9,1.8.3.8,1.1,1.2,1.9,1,4.6-1.4,8.7,1.2,8.8,1.2.7.4,1.6.2,2-.4.4-.7.2-1.6-.5-2,0,0-.3-.2-.8-.4h0Z"/>
  <path class="cls-1" d="M287.4,283.4c-11,22.9-39.1,31.8-62.6,20-23.5-11.8-33.6-40-22.5-62.9,11-22.9,39.1-31.8,62.6-20,23.5,11.8,33.6,40,22.5,62.9ZM284.7,282c10.3-21.4.9-47.8-21.1-58.9-22-11.1-48.2-2.7-58.6,18.7-10.3,21.4-.9,47.8,21.1,58.9,22,11.1,48.2,2.7,58.6-18.7Z"/>
  <path class="cls-1" d="M240.6,282.6c2.3-4.7,2.1-9.6-.5-10.9s-6.4,1.5-8.7,6.2c-2.3,4.7-2.1,9.6.5,10.9s6.4-1.5,8.7-6.2Z"/>
  <path class="cls-1" d="M256.5,285c2.3-4.7,2.1-9.6-.5-10.9-2.5-1.3-6.4,1.5-8.7,6.2-2.3,4.7-2.1,9.6.5,10.9s6.4-1.5,8.7-6.2Z"/>
  <path class="cls-1" d="M229.1,271.3c2.3-4.7,2.1-9.6-.5-10.9s-6.4,1.5-8.7,6.2c-2.3,4.7-2.1,9.6.5,10.9,2.5,1.3,6.4-1.5,8.7-6.2Z"/>
  <path class="cls-1" d="M275.3,273v-.2c4.5-14.9-2.9-31.4-17.1-38.6-14.2-7.1-31.6-2.9-40.5,9.7v.2c-.1,0,2.3,1.7,2.3,1.7v-.2c8.2-11.5,24-15.3,36.9-8.8,12.9,6.5,19.6,21.5,15.6,35.1v.2s2.8.9,2.8.9h0Z"/>
  <path class="cls-4" d="M272.3,363.6c.5,0,.9,0,.9,0,.8,0,1.5-.7,1.4-1.5,0-.8-.7-1.5-1.6-1.5,0,0-4.9,0-8.1-3.7-.6-.6-1.5-.7-2.1-.2-.6.5-.7,1.5,0,2.1,3.3,3.7,7.6,4.5,9.5,4.6h0Z"/>
  <path class="cls-4" d="M203,357.6c1.9.2,6.3.2,10-2.8.6-.5.7-1.4.2-2.1-.5-.7-1.5-.8-2.1-.2-3.7,3-8.5,2.1-8.5,2.1-.8-.2-1.6.4-1.7,1.2-.1.8.4,1.6,1.2,1.8,0,0,.4,0,1,.1h0Z"/>
  <path class="cls-4" d="M191.3,351.1c1.6-25.6,24-44.3,49.9-41.8,25.9,2.6,45.6,25.5,44,51.1-1.6,25.6-24,44.3-49.9,41.8-25.9-2.6-45.6-25.5-44-51.1ZM194.2,351.4c-1.5,24,17,45.4,41.2,47.8,24.2,2.4,45.2-15.1,46.7-39.1,1.5-24-17-45.4-41.2-47.8-24.2-2.4-45.2,15.1-46.7,39.1Z"/>
  <path class="cls-4" d="M239,344.9c2.8.3,5.3-3.8,5.7-9,.3-5.3-1.7-9.7-4.5-10-2.8-.3-5.3,3.8-5.7,9-.3,5.3,1.7,9.7,4.5,10Z"/>
  <path class="cls-4" d="M223.5,348.6c2.8.3,5.3-3.8,5.7-9,.3-5.3-1.7-9.7-4.5-10-2.8-.3-5.3,3.8-5.7,9-.3,5.3,1.7,9.7,4.5,10Z"/>
  <path class="cls-4" d="M253.8,351.2c2.8.3,5.3-3.8,5.7-9,.3-5.3-1.7-9.7-4.5-10-2.8-.3-5.3,3.8-5.7,9-.3,5.3,1.7,9.7,4.5,10Z"/>
  <path class="cls-4" d="M206,356.6v.2c1.5,15.6,14.4,28.5,30,30,15.7,1.5,30.1-8.8,33.6-23.9v-.2s-2.8-.7-2.8-.7v.2c-3.2,13.7-16.3,23.1-30.6,21.8-14.2-1.3-26-13.1-27.3-27.2v-.2s-2.9.2-2.9.2h0Z"/>
  <path class="cls-7" d="M348.4,293.2c.4-.4.6-.7.6-.7.5-.7.3-1.6-.4-2.1-.7-.5-1.6-.3-2.1.3,0,0-2.9,3.9-7.7,4.2-.8,0-1.4.8-1.3,1.6,0,.8.8,1.4,1.6,1.4,4.8-.3,8-3.3,9.2-4.7h0Z"/>
  <path class="cls-7" d="M302.9,345.4c1.2-1.4,3.8-5,3.5-9.8,0-.8-.8-1.5-1.6-1.5-.8,0-1.5.7-1.4,1.5.3,4.9-3.2,8.1-3.2,8.2-.6.6-.6,1.5,0,2.1.6.6,1.5.7,2.1.1,0,0,.3-.3.7-.7Z"/>
  <path class="cls-7" d="M291.7,350.3c-19.8-17.4-22.2-47-5.4-65.9,16.8-19,46.5-20.3,66.3-2.9,19.8,17.4,22.2,47,5.4,65.9-16.8,19-46.5,20.3-66.3,2.9ZM293.6,348.1c18.5,16.3,46.3,15.1,62.1-2.7,15.7-17.8,13.4-45.5-5.1-61.7-18.5-16.3-46.3-15.1-62.1,2.7-15.7,17.8-13.4,45.5,5.1,61.7Z"/>
  <path class="cls-7" d="M314,308.7c1.8-2,0-6.6-4-10.2-4-3.6-8.7-4.8-10.5-2.8-1.8,2,0,6.6,4,10.2,4,3.6,8.7,4.8,10.5,2.8Z"/>
  <path class="cls-7" d="M307.8,323.5c1.8-2,0-6.6-4-10.2-4-3.6-8.7-4.8-10.5-2.8-1.8,2,0,6.6,4,10.2,4,3.6,8.7,4.8,10.5,2.8Z"/>
  <path class="cls-7" d="M327.7,300.6c1.8-2,0-6.6-4-10.2-4-3.6-8.7-4.8-10.5-2.8-1.8,2,0,6.6,4,10.2,4,3.6,8.7,4.8,10.5,2.8Z"/>
  <path class="cls-7" d="M304,341.9h.2c13.4,8.7,31.3,6.4,41.5-5.2,10.2-11.7,10.2-29.7,0-42v-.2c-.1,0-2.4,1.8-2.4,1.8v.2c9.4,11.2,9.4,27.6.1,38.2-9.3,10.6-25.5,12.7-37.8,4.9h-.2c0-.1-1.5,2.3-1.5,2.3h0Z"/>
  <path class="cls-4" d="M400.1,241.5c-.2-.5-.3-.8-.4-.9-.4-.8-1.2-1.1-2-.8-.8.3-1.1,1.2-.7,2,0,0,2,4.6-.1,8.9-.3.7,0,1.6.7,2,.8.4,1.6,0,2-.7,2.1-4.3,1.1-8.7.4-10.5h0Z"/>
  <path class="cls-4" d="M421.8,308.3c-.6-1.8-2.4-5.9-6.7-8.3-.7-.4-1.6-.2-2,.6-.4.7-.1,1.6.6,2,4.3,2.4,5.4,7.1,5.4,7.1.2.8,1,1.3,1.8,1.2.8-.2,1.3-.9,1.1-1.7,0,0,0-.4-.3-.9h0Z"/>
  <path class="cls-4" d="M421.4,320.9c-24.6,7.3-51.3-6.8-59.6-31.4-8.3-24.7,4.9-50.7,29.4-58,24.6-7.3,51.3,6.8,59.6,31.4,8.3,24.7-4.9,50.7-29.4,58ZM420.4,318c23-6.9,35.4-31.2,27.6-54.3-7.8-23.1-32.8-36.3-55.8-29.4-23,6.9-35.4,31.2-27.6,54.3,7.8,23.1,32.8,36.3,55.8,29.4Z"/>
  <path class="cls-4" d="M388.5,287.1c5-1.5,8.3-5,7.4-7.7-.9-2.7-5.6-3.7-10.6-2.1-5,1.5-8.3,5-7.5,7.7.9,2.7,5.6,3.7,10.6,2.1Z"/>
  <path class="cls-4" d="M398,300.3c5-1.5,8.3-5,7.4-7.7-.9-2.7-5.6-3.7-10.6-2.1-5,1.5-8.3,5-7.4,7.7.9,2.7,5.6,3.7,10.6,2.1Z"/>
  <path class="cls-4" d="M388.5,271.1c5-1.5,8.3-5,7.4-7.7-.9-2.7-5.6-3.7-10.6-2.1-5,1.5-8.3,5-7.4,7.7.9,2.7,5.6,3.7,10.6,2.1Z"/>
  <path class="cls-4" d="M419.8,308.3h.2c14-7.3,20.7-24.5,15.7-40.3-5-15.7-20.5-25.9-36-23.7h-.2s.5,3,.5,3h.2c14.1-2,28.2,7.2,32.8,21.5,4.6,14.3-1.6,30-14.3,36.5h-.2c0,.1,1.4,2.9,1.4,2.9Z"/>
  <path class="cls-4" d="M355.5,245c.5.3.8.5.8.5.7.4,1.6,0,2-.6.4-.7,0-1.6-.7-2,0,0-4.4-2.3-5.6-7-.2-.8-1-1.3-1.8-1.1-.8.2-1.3,1-1.1,1.8,1.2,4.7,4.7,7.5,6.4,8.5h0Z"/>
  <path class="cls-4" d="M296.7,206.9c1.6,1,5.5,3.1,10.3,2.2.8-.2,1.3-.9,1.2-1.7-.2-.8-1-1.3-1.8-1.2-4.8.9-8.6-2.1-8.6-2.2-.7-.5-1.6-.4-2.1.2-.5.6-.4,1.6.3,2.1,0,0,.3.3.8.6h0Z"/>
  <path class="cls-4" d="M288.8,196.1c13.6-21.4,42.6-27.1,64.7-12.8,22.1,14.3,29,43.4,15.4,64.8-13.6,21.4-42.6,27.1-64.7,12.8-22.1-14.3-29-43.4-15.4-64.8ZM291.4,197.7c-12.7,20-6.3,47.2,14.4,60.6,20.7,13.4,47.8,8,60.6-12,12.7-20,6.3-47.2-14.4-60.6-20.7-13.4-47.8-8-60.6,12Z"/>
  <path class="cls-4" d="M344,207.7c2.8-4.4,3.1-9.3.8-10.8-2.4-1.6-6.5.8-9.3,5.2-2.8,4.4-3.1,9.3-.8,10.8,2.4,1.6,6.5-.8,9.3-5.2Z"/>
  <path class="cls-4" d="M328.4,203.5c2.8-4.4,3.1-9.3.8-10.8-2.4-1.6-6.5.8-9.3,5.2-2.8,4.4-3.1,9.3-.8,10.8,2.4,1.6,6.5-.8,9.3-5.2Z"/>
  <path class="cls-4" d="M354.1,220.2c2.8-4.4,3.1-9.3.8-10.8-2.4-1.6-6.5.8-9.3,5.2-2.8,4.4-3.1,9.3-.8,10.8,2.4,1.6,6.5-.8,9.3-5.2Z"/>
  <path class="cls-4" d="M299.8,207.6v.2c-6.2,14.2-.7,31.5,12.7,40.2,13.3,8.6,31.2,6.4,41.4-5.1h.1c0-.1-2.2-2.1-2.2-2.1h-.1c-9.3,10.6-25.6,12.6-37.7,4.8-12.1-7.9-17.1-23.6-11.6-36.5v-.2c0,0-2.6-1.2-2.6-1.2h0Z"/>
  <path class="cls-1" d="M82.3,283.9c0,.6.1.9.1,1,.2.8,1,1.3,1.7,1.1.8-.2,1.3-1,1.1-1.8,0,0-1-4.9,1.8-8.9.5-.7.4-1.7-.3-2.2-.7-.5-1.6-.4-2,.3-2.9,4-2.7,8.6-2.5,10.5h0Z"/>
  <path class="cls-1" d="M74.7,212.7c.2,1.9,1.1,6.4,4.8,9.5.6.5,1.5.4,2-.2.5-.7.4-1.6-.2-2.2-3.7-3.1-3.8-8.1-3.8-8.1,0-.9-.7-1.5-1.5-1.5-.8,0-1.5.7-1.4,1.6,0,0,0,.4,0,1h0Z"/>
  <path class="cls-1" d="M77.6,200.1c25-3.3,47.9,15.4,51,41.7,3.1,26.3-14.7,50.5-39.7,53.8-25,3.3-47.9-15.4-51-41.7-3.1-26.3,14.7-50.5,39.7-53.8ZM77.9,203.2c-23.4,3.1-40.1,25.7-37.2,50.4,2.9,24.6,24.3,42.2,47.7,39,23.4-3.1,40.1-25.7,37.2-50.4-2.9-24.6-24.3-42.2-47.7-39Z"/>
  <path class="cls-1" d="M112.1,243.7c-.3-2.9-4.7-4.7-9.8-4-5.1.7-8.9,3.6-8.6,6.5.3,2.9,4.7,4.7,9.8,4,5.1-.7,8.9-3.6,8.6-6.5Z"/>
  <path class="cls-1" d="M105.6,228.8c-.3-2.9-4.7-4.7-9.8-4-5.1.7-8.9,3.6-8.6,6.5.3,2.9,4.7,4.7,9.8,4,5.1-.7,8.9-3.6,8.6-6.5Z"/>
  <path class="cls-1" d="M109,259.9c-.3-2.9-4.7-4.7-9.8-4-5.1.7-8.9,3.6-8.6,6.5.3,2.9,4.7,4.7,9.8,4s8.9-3.6,8.6-6.5Z"/>
  <path class="cls-1" d="M76,215.9h-.2c-14.7,4.6-24.4,20.2-22.6,36.2,1.9,16,14.8,28.5,30.1,29h.2s0-3,0-3h-.2c-13.9-.4-25.7-11.8-27.4-26.4-1.7-14.6,7.1-28.7,20.6-32.9h.2c0,0-.8-3-.8-3h0Z"/>
  <path class="cls-7" d="M66.1,307.5c-.3-.5-.5-.8-.5-.8-.5-.7-1.4-.9-2-.4-.7.5-.8,1.5-.3,2.2,0,0,2.7,4.2,1.5,9-.2.8.3,1.7,1.1,1.9.8.2,1.6-.3,1.8-1.1,1.2-4.9-.6-9-1.5-10.8h0Z"/>
  <path class="cls-7" d="M99.1,370.4c-.9-1.7-3.3-5.5-7.8-6.9-.8-.2-1.6.2-1.8,1-.2.8.2,1.7,1,1.9,4.5,1.5,6.4,6,6.4,6.1.3.8,1.2,1.2,1.9.8.7-.3,1.1-1.2.8-2,0,0-.2-.4-.4-.9h0Z"/>
  <path class="cls-7" d="M100.7,383.5c-21.8,13.1-49.5,4.8-61.8-18.5-12.3-23.3-4.6-52.9,17.1-66,21.8-13.1,49.5-4.8,61.8,18.5,12.3,23.3,4.6,52.9-17.1,66ZM99.3,380.8c20.4-12.2,27.6-40,16-61.8-11.5-21.8-37.5-29.6-57.8-17.3-20.4,12.2-27.6,40-16,61.8,11.5,21.8,37.5,29.6,57.8,17.3Z"/>
  <path class="cls-7" d="M53.2,356.5c1.3,2.5,6,2.4,10.4-.3,4.4-2.7,7-6.9,5.7-9.4-1.3-2.5-6-2.4-10.4.3-4.4,2.7-7,6.9-5.7,9.4Z"/>
  <path class="cls-7" d="M64.7,367.8c1.3,2.5,6,2.4,10.4-.3,4.4-2.7,7-6.9,5.7-9.4-1.3-2.5-6-2.4-10.4.3-4.4,2.7-7,6.9-5.7,9.4Z"/>
  <path class="cls-7" d="M50.2,340.3c1.3,2.5,6,2.4,10.4-.3,4.4-2.7,7-6.9,5.7-9.4-1.3-2.5-6-2.4-10.4.3-4.4,2.7-7,6.9-5.7,9.4Z"/>
  <path class="cls-7" d="M96.6,368.2h.2c11.9-10.3,15.2-28.6,7.8-42.8-7.5-14.2-23.8-20.6-38.1-14.9h-.2c0,0,1,2.9,1,2.9h.2c12.9-5.2,27.8.6,34.6,13.5,6.8,12.9,3.8,29.6-7.1,38.8h-.2c0,.1,1.8,2.5,1.8,2.5h0Z"/>
  <path class="cls-3" d="M120.3,401.8c-.5.2-.8.3-.9.3-.7.3-1.1,1.2-.7,2,.4.8,1.3,1.1,2,.7,0,0,4.4-1.9,8.8.2.8.4,1.6,0,2-.7.3-.8,0-1.6-.8-2-4.4-2.1-8.7-1.1-10.5-.5h0Z"/>
  <path class="cls-3" d="M185.7,379.4c-1.8.6-5.8,2.4-7.9,6.6-.4.7,0,1.6.7,2,.7.4,1.6.1,2-.6,2.2-4.3,6.8-5.4,6.9-5.4.8-.2,1.3-1,1.1-1.8-.2-.8-1-1.3-1.8-1.1,0,0-.4,0-.9.3h0Z"/>
  <path class="cls-3" d="M198.6,380.9c8.9,24.5-3.7,50.8-28,58.8-24.4,7.9-51.4-5.6-60.3-30.1-8.9-24.5,3.7-50.9,28-58.8,24.4-7.9,51.4,5.6,60.3,30.1ZM195.8,381.8c-8.3-22.9-33.6-35.6-56.5-28.1-22.8,7.4-34.6,32.1-26.2,55,8.3,22.9,33.7,35.6,56.5,28.1,22.8-7.4,34.6-32.1,26.2-55Z"/>
  <path class="cls-3" d="M164.5,423.8c2.6-.9,3.2-5.7,1.4-10.7-1.8-5.1-5.3-8.5-7.9-7.6s-3.2,5.7-1.4,10.7c1.8,5.1,5.3,8.5,7.9,7.6Z"/>
  <path class="cls-3" d="M177.2,414.2c2.6-.9,3.2-5.7,1.4-10.7-1.8-5.1-5.3-8.5-7.9-7.6-2.6.9-3.2,5.7-1.4,10.7,1.8,5.1,5.3,8.5,7.9,7.6Z"/>
  <path class="cls-3" d="M148.6,424c2.6-.9,3.2-5.7,1.4-10.7-1.8-5.1-5.3-8.5-7.9-7.6-2.6.9-3.2,5.7-1.4,10.7,1.8,5.1,5.3,8.5,7.9,7.6Z"/>
  <path class="cls-3" d="M183.3,381.8v-.2c-7.7-13.9-24.6-20.7-39.4-15.8-14.8,4.9-23.7,20.3-20.7,35.8v.2s2.9-.5,2.9-.5v-.2c-2.7-14.1,5.4-28.1,18.8-32.5,13.4-4.4,28.8,1.7,35.7,14.4v.2c.1,0,2.7-1.3,2.7-1.3h0Z"/>
  <path class="cls-5" d="M428.4,214c.3.5.5.7.6.8.5.6,1.5.7,2.1.2.6-.5.7-1.5.2-2.1,0,0-3.1-3.9-2.4-8.6.1-.8-.4-1.6-1.2-1.8-.8-.2-1.6.4-1.7,1.2-.8,4.8,1.4,8.7,2.5,10.3h0Z"/>
  <path class="cls-5" d="M389.3,155.6c1.1,1.6,3.9,5.1,8.7,6.2.8.2,1.6-.3,1.8-1.1.2-.8-.4-1.6-1.2-1.8-4.8-1.1-7.1-5.4-7.1-5.4-.4-.7-1.3-1-2-.7-.7.4-1,1.3-.6,2,0,0,.2.3.5.8h0Z"/>
  <path class="cls-5" d="M386.2,143c21.3-13.8,50.7-7.4,65.4,14.2,14.8,21.7,9.4,50.6-11.9,64.4-21.3,13.8-50.7,7.4-65.4-14.2-14.8-21.7-9.4-50.6,11.9-64.4ZM387.9,145.5c-19.9,13-25,40-11.1,60.3,13.8,20.3,41.3,26.3,61.2,13.3,19.9-13,25-40,11.1-60.3-13.8-20.3-41.3-26.3-61.2-13.3Z"/>
  <path class="cls-5" d="M432.7,175.4c4.3-2.9,6.6-7.1,5-9.5-1.6-2.4-6.4-2-10.7.9-4.3,2.9-6.6,7.1-5,9.5,1.6,2.4,6.4,2,10.7-.9Z"/>
  <path class="cls-5" d="M420,165.3c4.3-2.9,6.6-7.1,5-9.5-1.6-2.4-6.4-2-10.7.9-4.3,2.9-6.6,7.1-5,9.5,1.6,2.4,6.4,2,10.7-.9Z"/>
  <path class="cls-5" d="M437.1,190.9c4.3-2.9,6.6-7.1,5-9.5-1.6-2.4-6.4-2-10.7.9-4.3,2.9-6.6,7.1-5,9.5,1.6,2.4,6.4,2,10.7-.9Z"/>
  <path class="cls-5" d="M391.9,157.6h-.1c-11.4,10.6-13.3,28.5-4.4,41.7,8.9,13.2,26.3,18.4,40.6,12h.2c0,0-1.3-2.8-1.3-2.8h-.2c-12.9,5.9-28.8,1.2-36.9-10.8-8.1-12-6.4-28.2,4-37.8h.1c0-.1-2-2.3-2-2.3h0Z"/>
  <path class="cls-7" d="M202.4,208.2c.5,0,.9-.1.9-.2.8-.2,1.3-1,1-1.8-.2-.8-1-1.3-1.8-1.1,0,0-4.8,1-8.7-1.8-.7-.5-1.6-.4-2.1.3-.5.7-.3,1.6.4,2.1,4,2.9,8.4,2.7,10.3,2.5h0Z"/>
  <path class="cls-7" d="M133.6,217.4c1.9-.2,6.2-1.2,9.1-4.9.5-.6.4-1.6-.3-2.1-.7-.5-1.6-.4-2.1.2-3,3.8-7.8,3.9-7.8,3.9-.8,0-1.5.7-1.4,1.5,0,.8.7,1.5,1.6,1.5,0,0,.4,0,1,0h0Z"/>
  <path class="cls-7" d="M121,213.5c-4-25.6,13.5-48.8,39.1-51.9,25.6-3,49.7,15.3,53.8,40.8,4,25.6-13.5,48.8-39.1,51.9-25.6,3-49.7-15.3-53.8-40.8ZM124,213.2c3.8,23.9,26.4,41.1,50.3,38.2,24-2.8,40.4-24.6,36.6-48.5-3.8-23.9-26.4-41.1-50.3-38.2s-40.4,24.6-36.6,48.5Z"/>
  <path class="cls-7" d="M166,197.3c2.7-.3,4.2-4.9,3.4-10.2-.8-5.3-3.6-9.4-6.3-9-2.7.3-4.2,4.9-3.4,10.2.8,5.3,3.6,9.4,6.3,9Z"/>
  <path class="cls-7" d="M151.6,204.3c2.7-.3,4.2-4.9,3.4-10.2-.8-5.3-3.6-9.4-6.3-9-2.7.3-4.2,4.9-3.4,10.2.8,5.3,3.6,9.4,6.3,9Z"/>
  <path class="cls-7" d="M181.6,200.2c2.7-.3,4.2-4.9,3.4-10.2-.8-5.3-3.6-9.4-6.3-9-2.7.3-4.2,4.9-3.4,10.2.8,5.3,3.6,9.4,6.3,9Z"/>
  <path class="cls-7" d="M136.4,215.6v.2c4.9,15,20.2,24.9,35.7,23,15.5-1.9,27.3-15.2,27.4-30.8v-.2s-2.9,0-2.9,0v.2c0,14.2-10.8,26.3-24.9,28.1-14.1,1.8-28.1-7.2-32.4-20.9v-.2c0,0-2.9.8-2.9.8h0Z"/>
  <path class="cls-5" d="M180.2,331.2c.4.4.6.7.7.7.6.6,1.6.5,2.1,0,.5-.6.5-1.5-.1-2.1,0,0-3.6-3.4-3.5-8.3,0-.8-.6-1.5-1.4-1.6-.8,0-1.5.6-1.5,1.4-.1,4.9,2.5,8.5,3.8,9.9h0Z"/>
  <path class="cls-5" d="M133.8,278.4c1.3,1.4,4.5,4.5,9.4,5,.8,0,1.5-.5,1.6-1.3,0-.8-.6-1.5-1.4-1.6-4.9-.5-7.7-4.4-7.8-4.4-.5-.7-1.4-.8-2.1-.4-.7.5-.8,1.4-.3,2.1,0,0,.2.3.6.7h0Z"/>
  <path class="cls-5" d="M129.1,266.2c19.2-16.6,48.9-14.1,66.4,5.5,17.5,19.7,16.1,49.2-3.1,65.8-19.2,16.6-48.9,14.1-66.4-5.5-17.5-19.7-16.1-49.2,3.1-65.8ZM131.1,268.4c-17.9,15.5-19.2,43.2-2.9,61.6,16.3,18.4,44.2,20.7,62.2,5.2,17.9-15.5,19.2-43.2,2.9-61.6-16.3-18.4-44.2-20.7-62.2-5.2Z"/>
  <path class="cls-5" d="M179.3,292.2c3.9-3.4,5.6-8,3.7-10.1-1.9-2.1-6.5-1.1-10.5,2.4-3.9,3.4-5.6,8-3.7,10.1,1.9,2.1,6.5,1.1,10.5-2.4Z"/>
  <path class="cls-5" d="M165.4,283.9c3.9-3.4,5.6-8,3.7-10.1-1.9-2.1-6.5-1.1-10.5,2.4-3.9,3.4-5.6,8-3.7,10.1,1.9,2.1,6.5,1.1,10.5-2.4Z"/>
  <path class="cls-5" d="M185.7,307c3.9-3.4,5.6-8,3.7-10.1-1.9-2.1-6.5-1.1-10.5,2.4-3.9,3.4-5.6,8-3.7,10.1,1.9,2.1,6.5,1.1,10.5-2.4Z"/>
  <path class="cls-5" d="M136.6,280v.2c-10,11.9-9.4,29.9,1.1,41.9,10.6,11.9,28.5,14.8,41.6,6.6h.2c0-.1-1.6-2.6-1.6-2.6h-.2c-12,7.6-28.2,5-37.9-5.8-9.6-10.8-10.1-27.2-1.1-38.1v-.2c.1,0-2.2-1.9-2.2-1.9h0Z"/>
  <path class="cls-4" d="M24.6,263c.3-.5.4-.8.5-.8.4-.7,0-1.7-.6-2.1-.7-.4-1.6-.1-1.9.7,0,0-2.2,4.5-6.8,5.6-.8.2-1.3,1-1.1,1.8.2.8,1,1.4,1.7,1.2,4.6-1.1,7.2-4.7,8.2-6.4h0Z"/>
  <path class="cls-4" d="M-22.4,330.9c-20.9-14.5-26.8-44.6-13.1-67,13.7-22.4,41.9-28.8,62.8-14.2,20.9,14.5,26.8,44.6,13.1,67-13.7,22.4-41.9,28.8-62.8,14.2ZM-20.8,328.3c19.6,13.6,45.9,7.6,58.8-13.3,12.8-21,7.3-49.1-12.3-62.7-19.6-13.6-45.9-7.6-58.8,13.3-12.8,21-7.3,49.1,12.3,62.7Z"/>
  <path class="cls-4" d="M.6,264c-4.3-3-8.9-3.5-10.4-1-1.5,2.4.8,6.8,5.1,9.8,4.3,3,8.9,3.5,10.4,1,1.5-2.4-.8-6.8-5.1-9.8Z"/>
  <path class="cls-4" d="M-11.5,320.1h.2c13.9,6.7,30.6,1.5,38.9-12.2,8.3-13.6,6.1-32.2-5.2-43.1l-.2-.2-1.9,2.2.2.2c10.2,9.9,12.3,26.8,4.7,39.2-7.5,12.4-22.8,17.2-35.4,11.1h-.2c0,0-1.2,2.7-1.2,2.7h0Z"/>
  <path class="cls-5" d="M533.9,362.3c-.5-.3-.8-.4-.9-.4-.8-.3-1.6,0-1.9.9-.3.8.1,1.6.9,1.9,0,0,4.6,1.8,6.3,6.4.3.8,1.1,1.2,1.9.9.8-.3,1.2-1.1.9-1.9-1.7-4.6-5.5-6.9-7.3-7.8h0Z"/>
  <path class="cls-5" d="M596.5,393.6c-1.7-.9-5.9-2.5-10.5-1.1-.8.2-1.2,1.1-.9,1.8.3.8,1.1,1.2,1.9,1,4.6-1.4,8.7,1.2,8.8,1.2.7.4,1.6.2,2-.4.4-.7.2-1.6-.5-2,0,0-.3-.2-.8-.5h0Z"/>
  <path class="cls-5" d="M605.5,403.6c-11,22.9-39.1,31.8-62.6,20-23.5-11.8-33.6-40-22.5-62.9,11-22.9,39.1-31.8,62.6-20,23.5,11.8,33.6,40,22.5,62.9ZM602.8,402.2c10.3-21.4.9-47.8-21.1-58.9-22-11.1-48.2-2.7-58.6,18.7-10.3,21.4-.9,47.8,21.1,58.9,22,11.1,48.2,2.7,58.6-18.7Z"/>
  <path class="cls-5" d="M558.7,402.8c2.3-4.7,2.1-9.6-.5-10.9-2.5-1.3-6.4,1.5-8.7,6.2-2.3,4.7-2.1,9.6.5,10.9,2.5,1.3,6.4-1.5,8.7-6.2Z"/>
  <path class="cls-5" d="M574.5,405.2c2.3-4.7,2.1-9.6-.5-10.9-2.5-1.3-6.4,1.5-8.7,6.2-2.3,4.7-2.1,9.6.5,10.9,2.5,1.3,6.4-1.5,8.7-6.2Z"/>
  <path class="cls-5" d="M547.2,391.5c2.3-4.7,2.1-9.6-.5-10.9-2.5-1.3-6.4,1.5-8.7,6.2s-2.1,9.6.5,10.9c2.5,1.3,6.4-1.5,8.7-6.2Z"/>
  <path class="cls-5" d="M593.4,393.2v-.2c4.5-14.9-2.9-31.5-17.1-38.6-14.2-7.1-31.6-2.9-40.5,9.7v.2c-.1,0,2.3,1.7,2.3,1.7v-.2c8.2-11.5,24-15.3,36.9-8.8,12.9,6.5,19.6,21.5,15.6,35.1v.2s2.8.9,2.8.9h0Z"/>
  <path class="cls-6" d="M590.3,483.9c.5,0,.9,0,.9,0,.8,0,1.5-.7,1.4-1.5,0-.8-.7-1.5-1.6-1.5,0,0-4.9,0-8.1-3.7-.6-.6-1.5-.7-2.1-.2-.6.5-.7,1.5,0,2.1,3.3,3.7,7.6,4.5,9.5,4.6h0Z"/>
  <path class="cls-6" d="M521,477.8c1.9.2,6.3.2,10-2.8.6-.5.7-1.4.2-2.1-.5-.7-1.5-.8-2.1-.2-3.7,3-8.5,2.1-8.5,2.1-.8-.2-1.6.4-1.7,1.2-.1.8.4,1.6,1.2,1.8,0,0,.4,0,1,.1h0Z"/>
  <path class="cls-6" d="M509.3,471.4c1.6-25.6,24-44.3,49.9-41.8,25.9,2.6,45.6,25.5,44,51.1-1.6,25.6-24,44.3-49.9,41.8-25.9-2.6-45.6-25.5-44-51.1ZM512.3,471.7c-1.5,24,17,45.4,41.2,47.8,24.2,2.4,45.2-15.1,46.7-39.1,1.5-24-17-45.4-41.2-47.8-24.2-2.4-45.2,15.1-46.7,39.1Z"/>
  <path class="cls-6" d="M557.1,465.1c2.8.3,5.3-3.8,5.7-9,.3-5.3-1.7-9.7-4.5-10-2.8-.3-5.3,3.8-5.7,9-.3,5.3,1.7,9.7,4.5,10Z"/>
  <path class="cls-6" d="M541.5,468.8c2.8.3,5.3-3.8,5.7-9,.3-5.3-1.7-9.7-4.5-10-2.8-.3-5.3,3.8-5.7,9-.3,5.3,1.7,9.7,4.5,10Z"/>
  <path class="cls-6" d="M571.8,471.4c2.8.3,5.3-3.8,5.7-9,.3-5.3-1.7-9.7-4.5-10-2.8-.3-5.3,3.8-5.7,9-.3,5.3,1.7,9.7,4.5,10Z"/>
  <path class="cls-6" d="M524.1,476.8v.2c1.5,15.6,14.4,28.5,30,30,15.7,1.5,30.1-8.8,33.6-23.9v-.2s-2.8-.7-2.8-.7v.2c-3.2,13.7-16.3,23.1-30.6,21.8-14.2-1.3-26-13.1-27.3-27.2v-.2s-2.9.2-2.9.2h0Z"/>
  <path class="cls-2" d="M666.5,413.4c.4-.4.6-.7.6-.7.5-.7.3-1.6-.4-2.1-.7-.5-1.6-.3-2.1.3,0,0-2.9,3.9-7.7,4.2-.8,0-1.4.8-1.3,1.6,0,.8.8,1.4,1.6,1.4,4.8-.3,8-3.3,9.2-4.7h0Z"/>
  <path class="cls-2" d="M621,465.6c1.2-1.4,3.8-5,3.5-9.8,0-.8-.8-1.5-1.6-1.5s-1.5.7-1.4,1.5c.3,4.9-3.2,8.1-3.2,8.2-.6.6-.6,1.5,0,2.1.6.6,1.5.7,2.1.1,0,0,.3-.3.7-.7Z"/>
  <path class="cls-2" d="M609.8,470.5c-19.8-17.4-22.2-47-5.4-65.9,16.8-19,46.5-20.3,66.3-2.9,19.8,17.4,22.2,47,5.4,65.9-16.8,19-46.5,20.3-66.3,2.9ZM611.7,468.3c18.5,16.3,46.3,15.1,62.1-2.7,15.7-17.8,13.4-45.5-5.1-61.7-18.5-16.3-46.3-15.1-62.1,2.7-15.7,17.8-13.4,45.5,5.1,61.7Z"/>
  <path class="cls-2" d="M632.1,428.9c1.8-2,0-6.6-4-10.2-4-3.6-8.7-4.8-10.5-2.8-1.8,2,0,6.6,4,10.2,4,3.6,8.7,4.8,10.5,2.8Z"/>
  <path class="cls-2" d="M625.9,443.7c1.8-2,0-6.6-4-10.2-4-3.6-8.7-4.8-10.5-2.8-1.8,2,0,6.6,4,10.2,4,3.6,8.7,4.8,10.5,2.8Z"/>
  <path class="cls-2" d="M645.7,420.9c1.8-2,0-6.6-4-10.2-4-3.6-8.7-4.8-10.5-2.8-1.8,2,0,6.6,4,10.2,4,3.6,8.7,4.8,10.5,2.8Z"/>
  <path class="cls-2" d="M622.1,462.1h.2c13.4,8.7,31.3,6.4,41.5-5.2,10.2-11.7,10.2-29.7,0-42v-.2c-.1,0-2.4,1.8-2.4,1.8v.2c9.4,11.2,9.4,27.6.1,38.2-9.3,10.6-25.5,12.7-37.8,4.9h-.2c0-.1-1.5,2.3-1.5,2.3h0Z"/>
  <path class="cls-7" d="M718.1,361.7c-.2-.5-.3-.8-.4-.9-.4-.8-1.2-1.1-2-.8-.8.3-1.1,1.2-.7,2,0,0,2,4.6-.1,8.9-.3.7,0,1.6.7,2s1.6,0,2-.7c2.1-4.3,1.1-8.7.4-10.5h0Z"/>
  <path class="cls-7" d="M739.9,428.6c-.6-1.8-2.4-5.9-6.7-8.3-.7-.4-1.6-.2-2,.6-.4.7-.1,1.6.6,2,4.3,2.4,5.4,7.1,5.4,7.1.2.8,1,1.3,1.8,1.2.8-.2,1.3-.9,1.1-1.7,0,0,0-.4-.3-.9h0Z"/>
  <path class="cls-7" d="M739.4,441.1c-24.6,7.3-51.3-6.8-59.6-31.4-8.3-24.7,4.9-50.7,29.4-58,24.6-7.3,51.3,6.8,59.6,31.4,8.3,24.7-4.9,50.7-29.4,58ZM738.5,438.2c23-6.9,35.4-31.2,27.6-54.3-7.8-23.1-32.8-36.3-55.8-29.4-23,6.9-35.4,31.2-27.6,54.3,7.8,23.1,32.8,36.3,55.8,29.4Z"/>
  <path class="cls-7" d="M706.6,407.4c5-1.5,8.3-5,7.5-7.7-.9-2.7-5.6-3.7-10.6-2.1-5,1.5-8.3,5-7.4,7.7s5.6,3.7,10.6,2.1Z"/>
  <path class="cls-7" d="M716.1,420.6c5-1.5,8.3-5,7.4-7.7-.9-2.7-5.6-3.7-10.6-2.1-5,1.5-8.3,5-7.5,7.7.9,2.7,5.6,3.7,10.6,2.1Z"/>
  <path class="cls-7" d="M706.6,391.3c5-1.5,8.3-5,7.4-7.7-.9-2.7-5.6-3.7-10.6-2.1-5,1.5-8.3,5-7.4,7.7.9,2.7,5.6,3.7,10.6,2.1Z"/>
  <path class="cls-7" d="M737.9,425.8h.2c14-7,20.7-23.5,15.7-38.5-5-15.1-20.5-24.8-36-22.6h-.2s.5,2.9.5,2.9h.2c14.1-2,28.2,6.9,32.8,20.6,4.6,13.7-1.6,28.7-14.3,35h-.2c0,0,1.4,2.7,1.4,2.7Z"/>
  <path class="cls-4" d="M673.6,365.2c.5.3.8.5.8.5.7.4,1.6,0,2-.6s0-1.6-.7-2c0,0-4.4-2.3-5.6-7-.2-.8-1-1.3-1.8-1.1-.8.2-1.3,1-1.1,1.8,1.2,4.7,4.7,7.5,6.4,8.5h0Z"/>
  <path class="cls-4" d="M614.7,327.1c1.6,1,5.5,3.1,10.3,2.2.8-.2,1.3-.9,1.2-1.7-.2-.8-1-1.3-1.8-1.2-4.8.9-8.6-2.1-8.6-2.2-.7-.5-1.6-.4-2.1.2-.5.6-.4,1.6.3,2.1,0,0,.3.3.8.6h0Z"/>
  <path class="cls-4" d="M606.9,316.3c13.6-21.4,42.6-27.1,64.7-12.8,22.1,14.3,29,43.4,15.4,64.8-13.6,21.4-42.6,27.1-64.7,12.8-22.1-14.3-29-43.4-15.4-64.8ZM609.4,317.9c-12.7,20-6.3,47.2,14.4,60.6,20.7,13.4,47.8,8,60.6-12,12.7-20,6.3-47.2-14.4-60.6-20.7-13.4-47.8-8-60.6,12Z"/>
  <path class="cls-4" d="M662,327.9c2.8-4.4,3.1-9.3.8-10.8s-6.5.8-9.3,5.2c-2.8,4.4-3.1,9.3-.8,10.8,2.4,1.6,6.5-.8,9.3-5.2Z"/>
  <path class="cls-4" d="M646.5,323.7c2.8-4.4,3.1-9.3.8-10.8-2.4-1.6-6.5.8-9.3,5.2s-3.1,9.3-.8,10.8c2.4,1.6,6.5-.8,9.3-5.2Z"/>
  <path class="cls-4" d="M672.2,340.4c2.8-4.4,3.1-9.3.8-10.8-2.4-1.6-6.5.8-9.3,5.2-2.8,4.4-3.1,9.3-.8,10.8,2.4,1.6,6.5-.8,9.3-5.2Z"/>
  <path class="cls-4" d="M617.8,327.8v.2c-6.2,14.2-.7,31.5,12.7,40.2,13.3,8.6,31.2,6.4,41.4-5.1h.1c0-.1-2.2-2.1-2.2-2.1h-.1c-9.3,10.6-25.6,12.6-37.7,4.8-12.1-7.9-17.1-23.6-11.6-36.5v-.2c0,0-2.6-1.2-2.6-1.2h0Z"/>
  <path class="cls-5" d="M367.1,374.6c-.5.2-.8.3-.9.3-.7.3-1.1,1.2-.7,2,.4.8,1.3,1.1,2,.7,0,0,4.4-1.9,8.8.2.8.4,1.6,0,2-.7.3-.8,0-1.6-.8-2-4.4-2.1-8.7-1.1-10.5-.5h0Z"/>
  <path class="cls-5" d="M432.6,352.2c-1.8.6-5.8,2.4-7.9,6.6-.4.7,0,1.6.7,2,.7.4,1.6.1,2-.6,2.2-4.3,6.8-5.4,6.9-5.4.8-.2,1.3-1,1.1-1.8-.2-.8-1-1.3-1.8-1.1,0,0-.4,0-.9.3h0Z"/>
  <path class="cls-5" d="M445.4,353.7c8.9,24.5-3.7,50.9-28,58.8-24.4,7.9-51.4-5.6-60.3-30.1-8.9-24.5,3.7-50.9,28-58.8,24.4-7.9,51.4,5.6,60.3,30.1ZM442.6,354.7c-8.3-22.9-33.7-35.6-56.5-28.1-22.8,7.4-34.6,32.1-26.2,55,8.3,22.9,33.7,35.6,56.5,28.1,22.8-7.4,34.6-32.1,26.2-55Z"/>
  <path class="cls-5" d="M411.3,396.7c2.6-.9,3.2-5.7,1.4-10.7-1.8-5.1-5.3-8.5-7.9-7.6-2.6.9-3.2,5.7-1.4,10.7,1.8,5.1,5.3,8.5,7.9,7.6Z"/>
  <path class="cls-5" d="M424,387c2.6-.9,3.2-5.7,1.4-10.7-1.8-5.1-5.3-8.5-7.9-7.6-2.6.9-3.2,5.7-1.4,10.7,1.8,5.1,5.3,8.5,7.9,7.6Z"/>
  <path class="cls-5" d="M395.4,396.8c2.6-.9,3.2-5.7,1.4-10.7-1.8-5.1-5.3-8.5-7.9-7.6-2.6.9-3.2,5.7-1.4,10.7,1.8,5.1,5.3,8.5,7.9,7.6Z"/>
  <path class="cls-5" d="M430.1,354.7v-.2c-7.7-13.9-24.6-20.7-39.4-15.8s-23.7,20.3-20.7,35.8v.2s2.9-.5,2.9-.5v-.2c-2.7-14.1,5.4-28.1,18.8-32.5,13.4-4.4,28.8,1.7,35.7,14.4v.2c.1,0,2.7-1.3,2.7-1.3h0Z"/>
  <path class="cls-5" d="M762.7,315.7c.5.1.9.2.9.2.8.1,1.6-.5,1.7-1.3.1-.8-.4-1.6-1.2-1.7,0,0-4.8-.7-7.2-4.8-.4-.7-1.3-.9-2-.5-.7.4-.9,1.4-.5,2.1,2.4,4.1,6.5,5.6,8.3,6h0Z"/>
  <path class="cls-5" d="M696.2,298.8c1.8.4,6.1,1.1,10.4-1.4.7-.4,1-1.4.6-2.1-.4-.7-1.3-1-2-.5-4.3,2.5-8.7.9-8.8.9-.8-.3-1.6.1-1.9.9-.3.8,0,1.6.8,1.9,0,0,.4.1.9.3h0Z"/>
  <path class="cls-5" d="M686.3,291.6c7.2-25.3,33.1-41.1,57.7-35,24.7,6,38.9,31.6,31.7,56.9-7.2,25.3-33.1,41.1-57.7,35-24.7-6-38.9-31.6-31.7-56.9ZM689.1,292.3c-6.7,23.7,6.6,47.6,29.7,53.3,23.1,5.6,47.3-9,54-32.8,6.7-23.7-6.6-47.6-29.7-53.3-23.1-5.6-47.3,9-54,32.8Z"/>
  <path class="cls-5" d="M741.2,283.7c1.4-5.2.5-10-2.1-10.6-2.6-.6-5.9,3.1-7.4,8.3-1.4,5.2-.5,10,2.1,10.6s5.9-3.1,7.4-8.3Z"/>
  <path class="cls-5" d="M725.3,284.8c1.4-5.2.5-10-2.1-10.6-2.6-.6-5.9,3.1-7.4,8.3-1.4,5.2-.5,10,2.1,10.6,2.6.6,5.9-3.1,7.4-8.3Z"/>
  <path class="cls-5" d="M754.4,292.3c1.4-5.2.5-10-2.1-10.6-2.6-.6-5.9,3.1-7.4,8.3-1.4,5.2-.5,10,2.1,10.6,2.6.6,5.9-3.1,7.4-8.3Z"/>
  <path class="cls-5" d="M699.6,298.6v.2c-1.9,15.8,7.9,30.5,22.9,34.2,15,3.7,31.3-4.6,38-19.2v-.2c0,0-2.6-1.1-2.6-1.1v.2c-6.1,13.3-20.9,20.8-34.6,17.5-13.6-3.4-22.6-16.7-20.9-31.1v-.2s-2.9-.2-2.9-.2h0Z"/>
  <path class="cls-1" d="M1083.5,348.1c.5.1.9.2.9.2.8.1,1.6-.5,1.7-1.3.1-.8-.4-1.6-1.2-1.7,0,0-4.8-.7-7.2-4.8-.4-.7-1.3-.9-2-.5-.7.4-1,1.4-.5,2.1,2.4,4.1,6.5,5.6,8.3,6h0Z"/>
  <path class="cls-1" d="M1017,331.1c1.8.4,6.1,1.1,10.4-1.4.7-.4,1-1.4.6-2.1-.4-.7-1.3-1-2-.5-4.3,2.5-8.7.9-8.8.9-.8-.3-1.6.1-1.9.9-.3.8,0,1.6.8,1.9,0,0,.4.1.9.3h0Z"/>
  <path class="cls-1" d="M1007,323.9c7.2-25.3,33.1-41.1,57.7-35,24.7,6,38.9,31.6,31.7,56.9-7.1,25.3-33.1,41.1-57.7,35-24.7-6-38.9-31.6-31.8-56.9ZM1009.8,324.6c-6.7,23.7,6.6,47.6,29.7,53.3,23.1,5.6,47.3-9,54-32.8,6.7-23.7-6.6-47.6-29.7-53.3-23.1-5.6-47.3,9-54,32.8Z"/>
  <path class="cls-1" d="M1062,316c1.5-5.2.5-10-2.1-10.6-2.6-.6-5.9,3.1-7.3,8.3-1.4,5.2-.5,10,2.1,10.6,2.6.6,5.9-3.1,7.3-8.3Z"/>
  <path class="cls-1" d="M1046,317.2c1.4-5.2.5-10-2.1-10.6-2.6-.6-5.9,3.1-7.3,8.3-1.5,5.2-.5,10,2.1,10.6,2.6.6,5.9-3.1,7.3-8.3Z"/>
  <path class="cls-1" d="M1075.1,324.6c1.4-5.2.5-10-2.1-10.6-2.6-.6-5.9,3.1-7.3,8.3-1.4,5.2-.5,10,2.1,10.6,2.6.6,5.9-3.1,7.3-8.3Z"/>
  <path class="cls-1" d="M1020.3,330.9v.2c-2,15.8,7.9,30.5,22.9,34.2,15,3.7,31.3-4.6,37.9-19.2v-.2c0,0-2.6-1.1-2.6-1.1v.2c-6.1,13.3-20.9,20.8-34.6,17.5-13.6-3.4-22.6-16.7-20.9-31.1v-.2s-2.9-.2-2.9-.2h0Z"/>
  <path class="cls-4" d="M1072.5,441.6c.5.1.9.2.9.2.8.1,1.6-.5,1.7-1.3.1-.8-.4-1.6-1.2-1.7,0,0-4.8-.7-7.2-4.8-.4-.7-1.3-.9-2-.5-.7.4-1,1.4-.5,2.1,2.4,4.1,6.5,5.6,8.3,6h0Z"/>
  <path class="cls-4" d="M1006,424.6c1.8.4,6.1,1.1,10.4-1.4.7-.4,1-1.4.6-2.1-.4-.7-1.3-1-2-.5-4.3,2.5-8.7.9-8.8.9-.8-.3-1.6.1-1.9.9-.3.8,0,1.6.8,1.9,0,0,.4.1.9.3h0Z"/>
  <path class="cls-4" d="M996,417.4c7.1-25.3,33.1-41.1,57.7-35,24.7,6,38.9,31.6,31.7,56.9-7.1,25.3-33.1,41.1-57.7,35-24.7-6-38.9-31.6-31.7-56.9ZM998.9,418.1c-6.7,23.7,6.6,47.6,29.7,53.3,23.1,5.6,47.3-9,54-32.8,6.7-23.7-6.6-47.6-29.7-53.3-23.1-5.6-47.3,9-54,32.8Z"/>
  <path class="cls-4" d="M1051,409.6c1.5-5.2.5-10-2.1-10.6-2.6-.6-5.9,3.1-7.3,8.3-1.4,5.2-.5,10,2.1,10.6,2.6.6,5.9-3.1,7.3-8.3Z"/>
  <path class="cls-4" d="M1035,410.7c1.4-5.2.5-10-2.1-10.6-2.6-.6-5.9,3.1-7.3,8.3-1.5,5.2-.5,10,2.1,10.6,2.6.6,5.9-3.1,7.3-8.3Z"/>
  <path class="cls-4" d="M1064.1,418.1c1.4-5.2.5-10-2.1-10.6-2.6-.6-5.9,3.1-7.3,8.3-1.4,5.2-.5,10,2.1,10.6,2.6.6,5.9-3.1,7.3-8.3Z"/>
  <path class="cls-4" d="M1009.3,424.4v.2c-2,15.8,7.9,30.5,22.9,34.2,15,3.7,31.3-4.6,37.9-19.2v-.2c0,0-2.6-1.1-2.6-1.1v.2c-6.1,13.3-20.9,20.8-34.6,17.5-13.6-3.4-22.6-16.7-20.9-31.1v-.2s-2.9-.2-2.9-.2h0Z"/>
  <path class="cls-7" d="M1155,381c.5-.2.8-.4.8-.5.7-.5.9-1.4.5-2.1-.4-.7-1.3-.9-2-.5,0,0-4.1,2.6-8.6,1.1-.8-.2-1.6.2-1.8,1-.3.8.2,1.7.9,1.9,4.5,1.5,8.5,0,10.2-.9h0Z"/>
  <path class="cls-7" d="M1093.9,413.1c1.7-.9,5.4-3.2,7-7.9.3-.8-.1-1.7-.8-2-.8-.3-1.6.1-1.9.9-1.7,4.7-6.1,6.5-6.1,6.5-.8.3-1.2,1.2-.9,2,.3.8,1.1,1.2,1.9.9,0,0,.4-.2.8-.4h0Z"/>
  <path class="cls-7" d="M1081.6,413.4c-11-23.9-1.5-52.7,21.1-64.3,22.6-11.5,50-1.4,61,22.4,11,23.9,1.5,52.7-21.1,64.3-22.6,11.5-50,1.4-61-22.4ZM1084.2,412c10.3,22.4,35.9,31.8,57.1,21,21.2-10.8,30.1-37.8,19.8-60.2-10.3-22.4-35.9-31.8-57.1-21-21.2,10.8-30.1,37.8-19.8,60.2Z"/>
  <path class="cls-7" d="M1118.6,371.3c-2.2-4.9-6-7.9-8.4-6.7-2.4,1.2-2.5,6.2-.3,11.2,2.2,4.9,6,7.9,8.4,6.7,2.4-1.2,2.6-6.2.3-11.2Z"/>
  <path class="cls-7" d="M1107.2,383c-2.2-4.9-6-7.9-8.4-6.7-2.4,1.2-2.5,6.2-.3,11.2,2.2,4.9,6,7.9,8.4,6.7s2.6-6.2.3-11.2Z"/>
  <path class="cls-7" d="M1133.9,368.9c-2.2-4.9-6-7.9-8.4-6.7-2.4,1.2-2.6,6.2-.3,11.2s6,7.9,8.4,6.7c2.4-1.2,2.6-6.2.3-11.2Z"/>
  <path class="cls-7" d="M1096.1,410.2v.2c8.9,13.3,25.8,17.9,39.6,10.8,13.8-7.1,20.8-24.1,16.4-39.5v-.2c0,0-2.8.9-2.8.9v.2c4.1,14.1-2.3,29.5-14.9,36-12.5,6.4-28,2.2-35.9-9.8v-.2c-.1,0-2.5,1.7-2.5,1.7h0Z"/>
  <path class="cls-1" d="M520.4,328.5c.5,0,.9-.1.9-.2.8-.2,1.3-1,1-1.8-.2-.8-1-1.3-1.8-1.1,0,0-4.8,1-8.7-1.8-.7-.5-1.6-.4-2.1.3-.5.7-.3,1.6.4,2.1,4,2.9,8.4,2.7,10.3,2.5h0Z"/>
  <path class="cls-1" d="M451.6,337.7c1.9-.2,6.2-1.2,9.1-4.9.5-.6.4-1.6-.3-2.1-.7-.5-1.6-.4-2.1.2-3,3.8-7.8,3.9-7.8,3.9-.8,0-1.5.7-1.4,1.5,0,.8.7,1.5,1.6,1.5,0,0,.4,0,1,0h0Z"/>
  <path class="cls-1" d="M439.1,333.7c-4-25.6,13.5-48.8,39.1-51.9,25.6-3,49.7,15.3,53.8,40.8,4,25.6-13.5,48.8-39.1,51.9-25.6,3-49.7-15.3-53.8-40.8ZM442,333.4c3.8,23.9,26.4,41.1,50.3,38.2,24-2.8,40.4-24.6,36.6-48.5-3.8-23.9-26.4-41.1-50.3-38.2-24,2.8-40.4,24.6-36.6,48.5Z"/>
  <path class="cls-1" d="M484,317.5c2.7-.3,4.2-4.9,3.4-10.2-.8-5.3-3.6-9.4-6.3-9-2.7.3-4.2,4.9-3.4,10.2.8,5.3,3.6,9.4,6.3,9Z"/>
  <path class="cls-1" d="M469.6,324.5c2.7-.3,4.2-4.9,3.4-10.2-.8-5.3-3.6-9.4-6.3-9-2.7.3-4.2,4.9-3.4,10.2.8,5.3,3.6,9.4,6.3,9Z"/>
  <path class="cls-1" d="M499.7,320.5c2.7-.3,4.2-4.9,3.4-10.2-.8-5.3-3.6-9.4-6.3-9-2.7.3-4.2,4.9-3.4,10.2s3.6,9.4,6.3,9Z"/>
  <path class="cls-1" d="M454.5,335.8v.2c4.9,15,20.2,24.9,35.7,23,15.5-1.9,27.3-15.2,27.4-30.8v-.2s-2.9,0-2.9,0v.2c0,14.2-10.8,26.3-24.9,28.1-14.1,1.8-28.1-7.2-32.4-20.9v-.2c0,0-2.9.8-2.9.8h0Z"/>
  <path class="cls-2" d="M498.3,451.4c.4.4.6.7.7.7.6.6,1.6.5,2.1,0,.5-.6.5-1.5-.1-2.1,0,0-3.6-3.4-3.5-8.3,0-.8-.6-1.5-1.4-1.6-.8,0-1.5.6-1.5,1.4-.1,4.9,2.5,8.5,3.8,9.9h0Z"/>
  <path class="cls-2" d="M451.9,398.6c1.3,1.4,4.5,4.5,9.4,5,.8,0,1.5-.5,1.6-1.3,0-.8-.6-1.5-1.4-1.6-4.9-.5-7.7-4.4-7.8-4.4-.5-.7-1.4-.8-2.1-.4-.7.5-.8,1.4-.3,2.1,0,0,.2.3.6.7h0Z"/>
  <path class="cls-2" d="M447.1,386.4c19.2-16.6,48.9-14.1,66.4,5.5,17.5,19.7,16.1,49.2-3.1,65.8-19.2,16.6-48.9,14.1-66.4-5.5-17.5-19.7-16.1-49.2,3.1-65.8ZM449.2,388.7c-17.9,15.5-19.2,43.2-2.9,61.6,16.3,18.4,44.2,20.7,62.2,5.2,17.9-15.5,19.2-43.2,2.9-61.6-16.3-18.4-44.2-20.7-62.2-5.2Z"/>
  <path class="cls-2" d="M497.4,412.5c3.9-3.4,5.6-8,3.7-10.1-1.9-2.1-6.5-1.1-10.5,2.4-3.9,3.4-5.6,8-3.7,10.1,1.9,2.1,6.5,1.1,10.5-2.4Z"/>
  <path class="cls-2" d="M483.5,404.2c3.9-3.4,5.6-8,3.7-10.1-1.9-2.1-6.5-1.1-10.5,2.4-3.9,3.4-5.6,8-3.7,10.1,1.9,2.1,6.5,1.1,10.5-2.4Z"/>
  <path class="cls-2" d="M503.8,427.2c3.9-3.4,5.6-8,3.7-10.1-1.9-2.1-6.5-1.1-10.5,2.4-3.9,3.4-5.6,8-3.7,10.1,1.9,2.1,6.5,1.1,10.5-2.4Z"/>
  <path class="cls-2" d="M454.7,400.2v.2c-10,11.9-9.4,29.9,1.1,41.9,10.6,11.9,28.5,14.8,41.6,6.6h.2c0-.1-1.6-2.6-1.6-2.6h-.2c-12,7.6-28.2,5-37.9-5.8-9.6-10.8-10.1-27.2-1.1-38.1v-.2c.1,0-2.2-1.9-2.2-1.9h0Z"/>
  <path class="cls-2" d="M913.6,398.7c.5-.3.7-.5.8-.5.6-.5.7-1.5.2-2.1-.5-.6-1.4-.8-2.1-.2,0,0-3.9,3-8.6,2.1-.8-.2-1.6.4-1.8,1.2-.2.8.4,1.6,1.2,1.8,4.8.9,8.6-1.1,10.3-2.1h0Z"/>
  <path class="cls-2" d="M855.4,436.2c1.6-1,5.1-3.7,6.2-8.5.2-.8-.3-1.6-1.1-1.8-.8-.2-1.6.3-1.8,1.1-1.1,4.8-5.4,6.9-5.4,7-.7.4-1,1.3-.7,2,.4.7,1.3,1,2,.7,0,0,.4-.2.8-.5h0Z"/>
  <path class="cls-2" d="M842.7,438.6c-13.9-21.8-7.5-51,14.2-65,21.7-14,50.7-7.6,64.6,14.2,13.9,21.8,7.5,50.9-14.2,65-21.7,14-50.7,7.6-64.6-14.2ZM845.2,437c13,20.4,40.1,26.4,60.5,13.3,20.3-13.1,26.3-40.4,13.3-60.8-13-20.4-40.1-26.4-60.5-13.3-20.3,13.1-26.3,40.4-13.3,60.8Z"/>
  <path class="cls-2" d="M866.8,398.6c2.9,4.5,7.1,6.9,9.4,5.4,2.3-1.5,1.9-6.3-.9-10.8-2.9-4.5-7.1-6.9-9.4-5.4s-1.9,6.3.9,10.8Z"/>
  <path class="cls-2" d="M856.7,411.1c2.9,4.5,7.1,6.9,9.4,5.4,2.3-1.5,1.9-6.3-.9-10.8-2.9-4.5-7.1-6.9-9.4-5.4-2.3,1.5-1.9,6.3.9,10.8Z"/>
  <path class="cls-2" d="M882.1,394.7c2.9,4.5,7.1,6.9,9.4,5.4,2.3-1.5,1.9-6.3-.9-10.8-2.9-4.5-7.1-6.9-9.4-5.4-2.3,1.5-1.9,6.3.9,10.8Z"/>
  <path class="cls-2" d="M857.3,433.6h.1c10.4,11.9,28.2,14.4,41.3,5.9,13.2-8.5,18.4-25.8,12.1-40.2v-.2c0,0-2.8,1.2-2.8,1.2v.2c5.8,13.1,1.1,28.8-10.9,36.6-12,7.7-28.1,5.5-37.6-5.2h-.1c0-.1-2.2,1.8-2.2,1.8h0Z"/>
  <path class="cls-4" d="M782,383c-.3.4-.5.8-.5.8-.4.7-.2,1.6.6,2,.7.4,1.6.2,2-.6,0,0,2.5-4.2,7.2-5.1.8-.2,1.4-.9,1.2-1.7-.2-.8-.9-1.4-1.7-1.2-4.8.9-7.6,4.2-8.7,5.8h0Z"/>
  <path class="cls-4" d="M822.2,326.4c-1.1,1.6-3.3,5.4-2.7,10.2.1.8.9,1.4,1.7,1.3.8-.1,1.4-.9,1.3-1.7-.7-4.8,2.5-8.5,2.5-8.5.5-.6.5-1.6-.1-2.1-.6-.5-1.6-.5-2.1.1,0,0-.3.3-.6.8h0Z"/>
  <path class="cls-4" d="M833.2,319.6c20.9,15.1,25.7,44.6,10.6,65.6-15.1,21.1-44.3,25.9-65.2,10.7-20.9-15.1-25.7-44.6-10.6-65.6,15.1-21,44.3-25.9,65.2-10.7ZM831.5,322c-19.6-14.2-47-9.6-61.1,10.1-14.1,19.7-9.6,47.3,9.9,61.4,19.6,14.2,47,9.6,61.1-10.1,14.1-19.7,9.6-47.3-9.9-61.4Z"/>
  <path class="cls-4" d="M814.7,364.2c-1.6,2.3.5,6.6,4.8,9.7,4.3,3.1,9.1,3.8,10.7,1.5,1.6-2.3-.5-6.6-4.8-9.7-4.3-3.1-9.1-3.8-10.7-1.5Z"/>
  <path class="cls-4" d="M819.5,348.8c-1.6,2.3.5,6.6,4.8,9.7s9.1,3.8,10.7,1.5c1.6-2.3-.5-6.6-4.8-9.7-4.3-3.1-9.1-3.8-10.7-1.5Z"/>
  <path class="cls-4" d="M801.9,373.6c-1.6,2.3.5,6.6,4.8,9.7,4.3,3.1,9.1,3.8,10.7,1.5,1.6-2.3-.5-6.6-4.8-9.7-4.3-3.1-9.1-3.8-10.7-1.5Z"/>
  <path class="cls-4" d="M821.4,329.6h-.2c-14-7.2-31.4-2.9-40.5,9.9-9.1,12.8-7.6,30.8,3.5,41.9h.1c0,.1,2-1.9,2-1.9h-.1c-10.1-10.2-11.4-26.6-3.1-38.2,8.3-11.6,24.1-15.5,36.9-9.1h.2c0,0,1.3-2.5,1.3-2.5h0Z"/>
  <path class="cls-6" d="M803.2,486c.2.5.3.8.3.9.3.8,1.2,1.1,2,.8.7-.3,1.1-1.2.8-2,0,0-1.9-4.6.3-8.9.4-.7,0-1.6-.7-2s-1.6,0-2,.7c-2.1,4.4-1.2,8.7-.6,10.5h0Z"/>
  <path class="cls-6" d="M782,419.1c.6,1.8,2.3,5.9,6.5,8.3.7.4,1.6.1,2-.6.4-.7.1-1.7-.6-2.1-4.3-2.4-5.3-7.1-5.3-7.2-.2-.8-1-1.3-1.8-1.2-.8.2-1.3,1-1.2,1.8,0,0,0,.4.2.9Z"/>
  <path class="cls-6" d="M783.2,406.5c24.6-7.8,50.9,5.9,58.6,30.6,7.8,24.7-6,51.2-30.5,59-24.6,7.8-50.9-5.9-58.6-30.6-7.8-24.7,6-51.2,30.5-59ZM784.1,409.4c-23,7.3-35.8,32.1-28.6,55.3,7.3,23.1,31.9,36,54.9,28.7,23-7.3,35.8-32.1,28.6-55.3-7.3-23.1-31.9-36-54.9-28.7Z"/>
  <path class="cls-6" d="M807.5,448.2c.8,2.6,5.6,3.5,10.6,1.9,5-1.6,8.4-5,7.6-7.6-.8-2.6-5.6-3.5-10.6-1.9-5,1.6-8.4,5-7.6,7.6Z"/>
  <path class="cls-6" d="M798.1,434.9c.8,2.6,5.6,3.5,10.6,1.9s8.4-5,7.6-7.6c-.8-2.6-5.6-3.5-10.6-1.9-5,1.6-8.4,5-7.6,7.6Z"/>
  <path class="cls-6" d="M807.4,464.2c.8,2.6,5.6,3.5,10.6,1.9,5-1.6,8.4-5,7.6-7.6-.8-2.6-5.6-3.5-10.6-1.9-5,1.6-8.4,5-7.6,7.6Z"/>
  <path class="cls-6" d="M784.3,421.8h-.2c-14,7.2-21,23.8-16.3,38.9,4.7,15.1,20,24.6,35.5,22.3h.2s-.4-2.9-.4-2.9h-.2c-14.1,2.1-28-6.6-32.3-20.3-4.3-13.7,2.1-28.9,14.9-35.3h.2c0-.1-1.3-2.7-1.3-2.7h0Z"/>
  <path class="cls-6" d="M820.8,557.9c.5.1.9.2.9.2.8,0,1.6-.5,1.7-1.3,0-.8-.5-1.6-1.3-1.7,0,0-4.8-.7-7.5-4.8-.4-.7-1.4-.9-2.1-.4-.7.5-.9,1.4-.4,2.1,2.6,4.1,6.8,5.5,8.7,6h0Z"/>
  <path class="cls-6" d="M753.2,541.3c1.8.4,6.2,1.1,10.4-1.4.7-.4.9-1.3.5-2-.4-.7-1.3-1-2-.5-4.2,2.5-8.8.9-8.8.9-.8-.3-1.6.1-1.9.9s.1,1.6.9,1.9c0,0,.4.1.9.3h0Z"/>
  <path class="cls-6" d="M742.9,534c6-25.2,31.3-40.8,56.3-34.9,25.1,6,40.6,31.4,34.6,56.6-6,25.2-31.3,40.8-56.3,34.9-25.1-6-40.6-31.4-34.6-56.6ZM745.8,534.7c-5.6,23.6,8.9,47.4,32.4,53,23.5,5.6,47.1-9,52.7-32.6,5.6-23.6-8.9-47.4-32.4-53-23.5-5.6-47.1,9-52.7,32.6Z"/>
  <path class="cls-6" d="M788.2,523.9c-1.2,5.2,0,9.9,2.6,10.5,2.7.6,5.8-3,7-8.2,1.2-5.2,0-9.9-2.6-10.5-2.7-.6-5.8,3-7,8.2Z"/>
  <path class="cls-6" d="M772.2,525.1c-1.2,5.2,0,9.9,2.6,10.5s5.8-3,7-8.2c1.2-5.2,0-9.9-2.6-10.5s-5.8,3-7,8.2Z"/>
  <path class="cls-6" d="M801.7,532.4c-1.2,5.2,0,9.9,2.6,10.5,2.7.6,5.8-3,7-8.2,1.2-5.2,0-9.9-2.6-10.5-2.7-.6-5.8,3-7,8.2Z"/>
  <path class="cls-6" d="M756.6,541v.2c-1.2,15.7,9.4,30.4,24.7,34,15.3,3.7,31.3-4.6,37.3-19.1v-.2c0,0-2.6-1.1-2.6-1.1v.2c-5.6,13.3-20.1,20.8-34,17.4-13.9-3.3-23.5-16.6-22.4-31v-.2s-2.9-.2-2.9-.2Z"/>
  <path class="cls-6" d="M840.4,517.6c-.5.3-.8.4-.8.5-.7.4-.9,1.4-.5,2.1.4.7,1.4.9,2.1.5,0,0,4.2-2.5,8.8-1.1.8.3,1.6-.2,1.9-1,.2-.8-.2-1.6-1-1.9-4.6-1.5-8.7.1-10.4,1h0Z"/>
  <path class="cls-6" d="M902.5,487c-1.7.8-5.4,3.1-7.1,7.7-.3.8.1,1.6.9,1.9.8.3,1.6-.1,1.9-.9,1.7-4.6,6.1-6.3,6.2-6.3.8-.3,1.2-1.2.9-1.9-.3-.8-1.1-1.2-1.9-.9,0,0-.4.1-.9.4h0Z"/>
  <path class="cls-6" d="M915.3,486c11.4,23.2,1.8,51.5-21.3,63-23.1,11.5-51.2,1.9-62.6-21.4-11.4-23.2-1.8-51.5,21.3-63,23.1-11.5,51.2-1.9,62.6,21.4ZM912.7,487.3c-10.7-21.8-36.9-30.7-58.6-20-21.7,10.7-30.6,37.2-20,59,10.7,21.8,36.9,30.7,58.6,20,21.6-10.7,30.6-37.2,20-59Z"/>
  <path class="cls-6" d="M878,527.5c2.3,4.8,6.3,7.6,8.8,6.4,2.5-1.2,2.6-6.1.3-10.8-2.3-4.8-6.3-7.6-8.8-6.4s-2.6,6.1-.3,10.8Z"/>
  <path class="cls-6" d="M889.4,516.3c2.3,4.8,6.3,7.6,8.8,6.4,2.5-1.2,2.6-6.1.3-10.8-2.3-4.8-6.3-7.6-8.8-6.4-2.5,1.2-2.6,6.1-.3,10.8Z"/>
  <path class="cls-6" d="M862.2,529.6c2.3,4.8,6.3,7.6,8.8,6.4,2.5-1.2,2.6-6.1.3-10.8-2.3-4.8-6.3-7.6-8.8-6.4-2.5,1.2-2.6,6.1-.3,10.8Z"/>
  <path class="cls-6" d="M900.3,489.3v-.2c-9.1-12.9-26.6-17.3-40.6-10.4-14,7-21.1,23.5-16.5,38.6v.2c0,0,2.8-.9,2.8-.9v-.2c-4.3-13.7,2.2-28.8,15-35.1,12.8-6.3,28.6-2.3,36.8,9.4v.2c.1,0,2.5-1.7,2.5-1.7h0Z"/>
  <path class="cls-7" d="M987.5,248.3c.1-.6.2-.9.2-.9,0-.8-.5-1.6-1.3-1.6-.8,0-1.6.5-1.6,1.3,0,0-.6,4.9-4.6,7.6-.7.5-.9,1.4-.4,2.1.5.7,1.4.9,2.1.4,4-2.7,5.3-7,5.7-8.8h0Z"/>
  <path class="cls-7" d="M973.4,316.6c.4-1.9.9-6.3-1.6-10.4-.4-.7-1.4-.9-2-.5-.7.4-.9,1.4-.5,2.1,2.6,4.2,1.1,8.8,1.1,8.8-.3.8.2,1.6,1,1.9.8.3,1.6-.2,1.9-1,0,0,.1-.4.2-.9h0Z"/>
  <path class="cls-7" d="M966,327.2c-25.2-5.4-41.3-30.4-35.9-55.8,5.4-25.4,30.3-41.6,55.5-36.2,25.2,5.4,41.3,30.4,35.9,55.8-5.4,25.4-30.3,41.6-55.5,36.2ZM966.6,324.2c23.6,5.1,46.9-10.1,52-33.9,5.1-23.7-10-47.2-33.6-52.2-23.6-5.1-46.9,10.1-52,33.9-5.1,23.7,10,47.2,33.6,52.2Z"/>
  <path class="cls-7" d="M946.5,274.8c-.6,2.7,3.2,5.8,8.4,6.9,5.2,1.1,9.9-.1,10.4-2.8.6-2.7-3.2-5.8-8.4-6.9-5.2-1.1-9.9.1-10.4,2.8Z"/>
  <path class="cls-7" d="M948.2,290.9c-.6,2.7,3.2,5.8,8.4,6.9,5.2,1.1,9.9-.1,10.4-2.8.6-2.7-3.2-5.8-8.4-6.9-5.2-1.1-9.9.2-10.4,2.8Z"/>
  <path class="cls-7" d="M954.4,261c-.6,2.7,3.2,5.8,8.4,6.9,5.2,1.1,9.9-.1,10.4-2.8.6-2.7-3.2-5.8-8.4-6.9-5.2-1.1-9.9.1-10.4,2.8Z"/>
  <path class="cls-7" d="M972.6,313.3h.2c15.6.9,29.9-10.1,33.2-25.6,3.3-15.4-5.3-31.3-19.9-37h-.2c0,0-1,2.7-1,2.7h.2c13.3,5.2,21.1,19.7,18.1,33.7-3,14-15.9,24-30.2,23.2h-.2s-.2,2.9-.2,2.9h0Z"/>
  <path class="cls-6" d="M829.8,596.9c-.5,0-.9,0-.9,0-.8.1-1.4.9-1.2,1.7s.9,1.4,1.7,1.3c0,0,4.9-.7,8.5,2.6.6.5,1.5.5,2.1-.1.6-.6.5-1.6-.1-2.1-3.7-3.2-8-3.4-10-3.3h0Z"/>
  <path class="cls-6" d="M899.1,594.1c-1.9,0-6.3.7-9.6,4.2-.6.6-.5,1.6,0,2.1.6.6,1.5.5,2.1,0,3.4-3.5,8.1-3.3,8.2-3.3.8,0,1.5-.6,1.6-1.4,0-.8-.6-1.5-1.4-1.6,0,0-.4,0-.9,0h0Z"/>
  <path class="cls-6" d="M911.2,598.3c1.1,25.9-18.9,47.9-44.6,49.1-25.7,1.2-47.6-19-48.8-44.8-1.1-25.9,18.9-47.9,44.6-49.1,25.7-1.2,47.6,19,48.8,44.8ZM908.2,598.4c-1.1-24.2-21.5-43.1-45.6-42-24.1,1.1-42.9,21.7-41.8,46,1.1,24.2,21.5,43.1,45.6,42,24.1-1.1,42.9-21.7,41.8-46Z"/>
  <path class="cls-6" d="M860.4,621.1c.2,5.3,2.7,9.5,5.5,9.4,2.8-.1,4.8-4.5,4.6-9.8-.2-5.3-2.7-9.5-5.5-9.4-2.8.1-4.8,4.5-4.6,9.8Z"/>
  <path class="cls-6" d="M875.4,615.5c.2,5.3,2.7,9.5,5.5,9.4,2.8-.1,4.8-4.5,4.6-9.8-.2-5.3-2.7-9.5-5.5-9.4-2.8.1-4.8,4.5-4.6,9.8Z"/>
  <path class="cls-6" d="M845.1,616.7c.2,5.3,2.7,9.5,5.5,9.4,2.8-.1,4.8-4.5,4.6-9.8-.2-5.3-2.7-9.5-5.5-9.4-2.8.1-4.8,4.5-4.6,9.8Z"/>
  <path class="cls-6" d="M896.1,595.3v-.2c-3.2-15.4-17.4-26.6-33-25.9-15.6.7-28.8,13-30.6,28.7v.2s2.9.3,2.9.3v-.2c1.6-14.2,13.6-25.5,27.8-26.1,14.2-.6,27.1,9.5,30,23.5v.2c0,0,2.9-.6,2.9-.6h0Z"/>
  <path class="cls-5" d="M949.1,405c-.2.5-.3.8-.3.9-.3.8.2,1.6,1,1.9.8.2,1.6-.2,1.9-1,0,0,1.5-4.7,5.9-6.5.7-.3,1.1-1.2.8-2-.3-.8-1.2-1.1-1.9-.8-4.4,1.9-6.5,5.8-7.3,7.5h0Z"/>
  <path class="cls-5" d="M976.1,340.8c-.8,1.8-2.1,6-.4,10.5.3.8,1.1,1.2,1.9.9.8-.3,1.2-1.2.9-1.9-1.7-4.6.6-8.8.6-8.9.4-.7.1-1.6-.6-2-.7-.4-1.6-.1-2,.6,0,0-.2.4-.4.9h0Z"/>
  <path class="cls-5" d="M985.4,331.8c23.7,10.2,34.7,37.9,24.5,61.7-10.2,23.8-37.7,34.9-61.4,24.7-23.7-10.2-34.7-37.9-24.5-61.7,10.2-23.8,37.7-34.9,61.4-24.7ZM984.2,334.5c-22.2-9.5-48,.8-57.5,23.1-9.5,22.3.8,48.2,22.9,57.8,22.2,9.5,48-.9,57.5-23.1,9.5-22.3-.8-48.2-22.9-57.8Z"/>
  <path class="cls-5" d="M976.9,379.4c-1.1,2.6,1.9,6.4,6.8,8.5,4.8,2.1,9.7,1.7,10.8-.9s-1.9-6.4-6.8-8.5c-4.8-2.1-9.7-1.7-10.8.9Z"/>
  <path class="cls-5" d="M978.2,363.3c-1.1,2.6,1.9,6.4,6.8,8.5,4.8,2.1,9.7,1.7,10.8-.9,1.1-2.6-1.9-6.4-6.8-8.5-4.8-2.1-9.7-1.7-10.8.9Z"/>
  <path class="cls-5" d="M966.5,391.4c-1.1,2.6,1.9,6.4,6.8,8.5,4.8,2.1,9.7,1.7,10.8-.9,1.1-2.6-1.9-6.4-6.8-8.5-4.8-2.1-9.7-1.7-10.8.9Z"/>
  <path class="cls-5" d="M976.1,344.1h-.2c-15.2-3.9-31.3,4.1-37.4,18.6-6.2,14.5-.8,31.7,12.4,40.1h.2c0,.1,1.5-2.4,1.5-2.4h-.2c-12-7.8-16.9-23.4-11.3-36.6,5.6-13.2,20.2-20.4,34-16.9h.2s.7-2.8.7-2.8h0Z"/>
  <path class="cls-1" d="M856,320.8c-.5.1-.9.2-.9.2-.8.2-1.2,1.1-1,1.9.2.8,1.1,1.3,1.8,1,0,0,4.7-1.3,8.7,1.4.7.5,1.6.3,2.1-.4.4-.7.3-1.6-.4-2.1-4.1-2.7-8.4-2.3-10.3-2h0Z"/>
  <path class="cls-1" d="M924.3,308.7c-1.9.3-6.1,1.5-8.9,5.5-.5.7-.3,1.6.3,2.1.7.5,1.6.3,2.1-.3,2.9-4,7.6-4.4,7.7-4.4.8,0,1.4-.8,1.4-1.6,0-.8-.8-1.4-1.6-1.4,0,0-.4,0-.9.1h0Z"/>
  <path class="cls-1" d="M936.8,311.2c4.5,25.5-12.4,50-37.7,54.6-25.4,4.6-49.7-12.4-54.3-37.9-4.5-25.5,12.4-50,37.7-54.6,25.4-4.6,49.7,12.4,54.3,37.9ZM933.9,311.7c-4.3-23.9-27.1-39.8-50.8-35.5-23.7,4.3-39.6,27.3-35.3,51.1,4.3,23.9,27.1,39.8,50.8,35.5,23.7-4.3,39.6-27.3,35.3-51.1Z"/>
  <path class="cls-1" d="M889.6,340.6c.9,5.2,3.9,9.1,6.7,8.6,2.7-.5,4.2-5.1,3.2-10.3-.9-5.2-3.9-9.1-6.7-8.6-2.7.5-4.2,5.1-3.2,10.3Z"/>
  <path class="cls-1" d="M903.6,333.1c.9,5.2,3.9,9.1,6.7,8.6,2.7-.5,4.2-5.1,3.2-10.3-.9-5.2-3.9-9.1-6.7-8.6-2.7.5-4.2,5.1-3.2,10.3Z"/>
  <path class="cls-1" d="M873.8,338.3c.9,5.2,3.9,9.1,6.7,8.6,2.7-.5,4.2-5.1,3.2-10.3-.9-5.2-3.9-9.1-6.7-8.6-2.7.5-4.2,5.1-3.2,10.3Z"/>
  <path class="cls-1" d="M921.4,310.3v-.2c-5.2-14.9-20.8-24-36.2-21.2-15.4,2.8-26.8,16.8-26.5,32.6v.2s2.9,0,2.9,0v-.2c-.3-14.3,10.1-27.1,24.1-29.6,14-2.5,28.1,5.8,32.8,19.3v.2c0,0,2.8-1,2.8-1h0Z"/>
</svg>