<svg width="51" height="51" viewBox="0 0 51 51" fill="none" xmlns="http://www.w3.org/2000/svg">
<g clip-path="url(#clip0_1_804)">
<path d="M41.2591 29.3145C41.5203 29.346 41.6847 29.3486 41.7127 29.3504C42.1088 29.3558 42.4356 29.0393 42.4395 28.643C42.4449 28.2468 42.1283 27.9201 41.7337 27.9148C41.7025 27.9142 39.3822 27.8429 37.9079 26.0497C37.6563 25.7433 37.2036 25.6997 36.8972 25.9513C36.5909 26.2029 36.5472 26.6556 36.7989 26.9619C38.2815 28.764 40.3515 29.2066 41.2589 29.316L41.2591 29.3145Z" fill="black"/>
<path d="M8.03611 25.3457C8.94349 25.4552 11.0586 25.5112 12.9247 24.1084C13.2419 23.8707 13.3057 23.4204 13.0679 23.1032C12.8302 22.786 12.3799 22.7222 12.0627 22.96C10.1862 24.3709 7.92938 23.8775 7.90811 23.8718C7.52188 23.7844 7.13686 24.025 7.04776 24.4126C6.96039 24.7988 7.20094 25.1838 7.58853 25.2729C7.61443 25.2792 7.77642 25.3144 8.03766 25.3459L8.03611 25.3457Z" fill="black"/>
<path d="M2.69173 22.3643C4.16366 10.0459 15.383 1.21968 27.7014 2.69161C40.0199 4.16354 48.8461 15.3829 47.3742 27.7013C45.9022 40.0198 34.6829 48.846 22.3645 47.374C10.046 45.9021 1.2198 34.6828 2.69173 22.3643ZM4.11712 22.5347C2.73993 34.0679 11.0017 44.5714 22.5348 45.9486C34.068 47.3258 44.5716 39.0641 45.9488 27.5309C47.326 15.9977 39.0642 5.4942 27.531 4.117C15.9979 2.73981 5.49432 11.0015 4.11712 22.5347Z" fill="black"/>
<path d="M25.6517 19.873C26.9734 20.0308 28.2889 18.1148 28.59 15.5934C28.891 13.072 28.0636 10.9001 26.7418 10.7423C25.4201 10.5845 24.1046 12.5005 23.8035 15.0219C23.5025 17.5433 24.3299 19.7152 25.6517 19.873Z" fill="black"/>
<path d="M18.0745 21.3708C19.3963 21.5286 20.7118 19.6126 21.0128 17.0912C21.3139 14.5698 20.4864 12.3979 19.1647 12.2401C17.843 12.0823 16.5274 13.9983 16.2264 16.5197C15.9254 19.0411 16.7528 21.213 18.0745 21.3708Z" fill="black"/>
<path d="M32.5989 23.1064C33.9207 23.2642 35.2362 21.3482 35.5372 18.8268C35.8383 16.3054 35.0108 14.1335 33.6891 13.9757C32.3674 13.8179 31.0519 15.7339 30.7508 18.2553C30.4498 20.7767 31.2772 22.9486 32.5989 23.1064Z" fill="black"/>
<path d="M9.60321 24.9359L9.60673 25.0367C9.90179 32.5749 15.7726 38.9383 23.2615 39.8323C30.755 40.7269 37.9585 35.9266 40.0211 28.6697L40.0485 28.5726L38.6975 28.1885L38.6701 28.2856C36.7949 34.886 30.2444 39.2523 23.4282 38.4379C16.6165 37.624 11.2783 31.8376 11.0107 24.9818L11.0072 24.881L9.60321 24.9359Z" fill="black"/>
</g>
<defs>
<clipPath id="clip0_1_804">
<rect width="45" height="45" fill="white" transform="translate(5.38965) rotate(6.87867)"/>
</clipPath>
</defs>
</svg>
