<svg width="157" height="71" viewBox="0 0 157 71" fill="none" xmlns="http://www.w3.org/2000/svg">
<g clip-path="url(#clip0_713_3453)">
<path d="M25.9098 26.3027C26.6744 26.3027 27.3252 26.2292 27.854 26.0823C28.3827 25.9354 28.8545 25.7559 29.2694 25.5274L29.5541 26.5393C29.0742 26.776 28.5373 26.9719 27.9353 27.1024C27.3334 27.2412 26.6012 27.3065 25.7389 27.3065C24.7465 27.3065 23.8192 27.1351 22.9487 26.8005C22.0783 26.4659 21.3218 25.9681 20.671 25.3234C20.0202 24.6786 19.5159 23.8707 19.1336 22.9077C18.7594 21.9447 18.5723 20.8348 18.5723 19.5617C18.5723 18.2886 18.7512 17.2277 19.1092 16.2566C19.4671 15.2854 19.9633 14.4693 20.5978 13.8001C21.2323 13.1391 21.9807 12.6331 22.8511 12.2822C23.7215 11.9394 24.6652 11.7681 25.6901 11.7681C26.6175 11.7681 27.374 11.8415 27.9679 11.9966C28.5617 12.1516 29.1067 12.3638 29.6192 12.6331L29.3345 13.5716C28.8057 13.3023 28.277 13.0983 27.7401 12.9677C27.2032 12.8371 26.6094 12.7719 25.9505 12.7719C25.1532 12.7719 24.3886 12.9024 23.6646 13.1554C22.9406 13.4084 22.2898 13.8165 21.7204 14.3714C21.151 14.9263 20.7036 15.6282 20.3619 16.4851C20.0284 17.342 19.8576 18.3703 19.8576 19.5781C19.8576 20.7859 20.0365 21.8794 20.3944 22.7445C20.7524 23.6014 21.2242 24.2951 21.7936 24.8092C22.3712 25.3315 23.0138 25.7069 23.7378 25.9354C24.4537 26.1721 25.1777 26.2863 25.8935 26.2863L25.9098 26.3027Z" fill="white"/>
<path d="M37.127 11.9722H38.3716V26.115H45.3023V27.127H37.127V11.9722Z" fill="white"/>
<path d="M52.3714 11.9721H61.0023V12.984H53.616V18.8273H60.376V19.8392H53.616V26.115H61.0674V27.1269H52.3633V11.9721H52.3714ZM56.2273 10.0461H55.2186L57.3743 7.06738H58.8873L56.2273 10.0461Z" fill="white"/>
<path d="M70.0157 11.972H71.6426L75.4822 23.1035C75.5798 23.3892 75.7018 23.7809 75.8564 24.2705C76.0109 24.7602 76.1492 25.209 76.2794 25.6252H76.3282C76.4421 25.209 76.5722 24.752 76.7268 24.2705C76.8814 23.7809 77.0034 23.3973 77.101 23.128L80.8918 11.972H82.5675L84.1294 27.1269H82.8848L82.0225 18.4436C81.9411 17.5459 81.8598 16.6646 81.7866 15.7832C81.7052 14.91 81.6402 14.0204 81.5914 13.1227H81.5425C81.3148 13.8735 81.0626 14.7304 80.7779 15.6852C80.4932 16.6401 80.184 17.5541 79.8668 18.4355L76.8488 27.1187H75.7181L72.6757 18.4355C72.0656 16.7054 71.5206 14.9344 71.0244 13.1227H70.9755C70.9105 13.8735 70.8454 14.7223 70.7722 15.6689C70.699 16.6156 70.6258 17.5378 70.5444 18.4355L69.6821 27.1187H68.4863L70.0482 11.9639L70.0157 11.972Z" fill="white"/>
<path d="M92.3538 11.9722H100.985V12.9841H93.5985V18.8273H100.358V19.8393H93.5985V26.115H101.05V27.127H92.3457V11.9722H92.3538Z" fill="white"/>
<path d="M108.826 11.972H110.022L116.611 21.9284C116.977 22.4751 117.335 23.0138 117.693 23.5361C118.043 24.0665 118.384 24.6051 118.726 25.1438H118.775C118.742 24.5317 118.726 23.9196 118.726 23.2912V11.9639H119.922V27.1187H118.726L112.349 17.5949C111.917 16.9502 111.502 16.2973 111.112 15.62C110.722 14.9508 110.347 14.2734 109.998 13.5961H109.949C109.998 15.0895 110.022 16.5748 110.022 18.0682V27.1105H108.826V11.972Z" fill="white"/>
<path d="M138.428 11.972V12.984H133.23V27.1269H131.986V12.9758H126.877V11.9639H138.428V11.972Z" fill="white"/>
<path d="M65.2171 32.4966H66.4617L72.1641 47.6514H70.8219L69.1705 43.1792H62.4106L60.7592 47.6514H59.4414L65.2171 32.4966ZM62.801 42.1673H68.7719L66.8765 36.9688C66.844 36.8708 66.7871 36.7076 66.7057 36.4628C66.6244 36.2261 66.5349 35.9487 66.4454 35.6467C66.3478 35.3447 66.2502 35.0183 66.1444 34.6837C66.0387 34.3491 65.9492 34.0308 65.8678 33.7452H65.819C65.7377 34.0308 65.6482 34.341 65.5424 34.6592C65.4367 34.9775 65.3309 35.2876 65.2333 35.5814C65.1276 35.8752 65.03 36.1445 64.9486 36.3893C64.8591 36.626 64.794 36.8219 64.7452 36.9688L62.801 42.1673Z" fill="white"/>
<path d="M83.9429 32.4966C84.9353 32.4966 85.8545 32.6516 86.7087 32.9536C87.5628 33.2555 88.3031 33.7126 88.9294 34.3165C89.5558 34.9204 90.0439 35.6712 90.3937 36.577C90.7435 37.4829 90.9224 38.5357 90.9224 39.7435C90.9224 41.2043 90.7109 42.4366 90.2961 43.4485C89.8812 44.4605 89.3118 45.2766 88.5959 45.905C87.8801 46.5334 87.0422 46.9822 86.1067 47.2515C85.1631 47.5208 84.1625 47.6596 83.1131 47.6596H79.5176V32.5047H83.951L83.9429 32.4966ZM80.7541 46.6395H82.8853C83.7151 46.6395 84.5286 46.5415 85.3339 46.3375C86.1311 46.1335 86.8551 45.7744 87.4896 45.2521C88.1322 44.7298 88.6447 44.028 89.0352 43.1384C89.4257 42.2489 89.6209 41.1145 89.6209 39.7353C89.6209 38.756 89.4745 37.8828 89.1735 37.1157C88.8806 36.3485 88.4576 35.6957 87.9126 35.157C87.3676 34.6184 86.7249 34.2104 85.9847 33.9329C85.2444 33.6554 84.4147 33.5085 83.5036 33.5085H80.7459V46.6395H80.7541Z" fill="white"/>
<path d="M98.7308 32.4966H107.362V33.5085H99.9754V39.3518H106.735V40.3637H99.9754V46.6395H107.427V47.6514H98.7227V32.4966H98.7308Z" fill="white"/>
<path d="M115.205 32.4968H119.614C120.395 32.4968 121.087 32.6029 121.689 32.8069C122.291 33.0191 122.787 33.3047 123.186 33.672C123.584 34.0392 123.885 34.4799 124.097 34.994C124.308 35.5082 124.406 36.0794 124.406 36.6997C124.406 37.2791 124.316 37.8014 124.129 38.2747C123.942 38.7481 123.698 39.1643 123.397 39.5233C123.096 39.8824 122.738 40.1925 122.34 40.4374C121.941 40.6822 121.526 40.8699 121.095 40.976L125.317 47.6353H123.877L119.948 41.2127H116.328V47.6353H115.197V32.4805L115.205 32.4968ZM116.328 40.217H119.11C119.688 40.217 120.225 40.1436 120.713 40.0048C121.209 39.8579 121.632 39.6458 121.982 39.352C122.331 39.0663 122.608 38.6991 122.811 38.2666C123.015 37.834 123.112 37.3281 123.112 36.7486C123.112 35.5979 122.779 34.7655 122.104 34.2595C121.428 33.7536 120.444 33.5006 119.134 33.5006H116.328V40.2089V40.217Z" fill="white"/>
<path d="M55.2762 49.8877C55.2762 49.8877 55.2597 49.9208 55.2679 49.9373C55.2845 49.9042 55.2845 49.8877 55.2762 49.8877Z" fill="white"/>
<path d="M49.1172 47.1376L49.288 47.0479C49.1741 47.0968 49.1335 47.1213 49.1172 47.1376Z" fill="white"/>
<path d="M48.8648 56.4248C48.7997 56.5227 48.7428 56.6615 48.6289 56.8981C48.7103 56.7431 48.7835 56.5799 48.873 56.433L48.8648 56.4248Z" fill="white"/>
<path d="M49.3941 49.5859L49.207 49.7084C49.2884 49.6512 49.3453 49.6186 49.3941 49.5859Z" fill="white"/>
<path d="M36.5012 53.6011C36.4524 53.65 36.3629 53.7072 36.2734 53.7643C36.3873 53.699 36.4768 53.6337 36.5012 53.6011Z" fill="white"/>
<path d="M51.5087 56.5635L51.2402 56.6451C51.2402 56.6451 51.346 56.6369 51.5087 56.5635Z" fill="white"/>
<path d="M59.6446 50.7607C59.6446 50.7607 59.6365 50.7607 59.6202 50.7689C59.6121 50.7852 59.6202 50.7689 59.6446 50.7607Z" fill="white"/>
<path d="M56.4713 53.0298C56.4062 53.0869 56.333 53.144 56.2598 53.2093C56.3574 53.1359 56.4794 53.0461 56.4713 53.0298Z" fill="white"/>
<path d="M56.1532 53.2988C56.1532 53.2988 56.2183 53.2416 56.2509 53.209C56.1939 53.2579 56.1451 53.2906 56.1532 53.2988Z" fill="white"/>
<path d="M32.7988 55.0864C32.7988 55.3884 32.8314 55.6414 32.8558 55.9107L32.7988 55.0864Z" fill="white"/>
<path d="M42.5613 36.5937L42.6182 36.561C42.5613 36.5774 42.5531 36.5855 42.5613 36.5937Z" fill="white"/>
<path d="M47.5318 57.151C47.5888 56.9959 47.727 56.7266 47.8409 56.5062C47.9548 56.2859 48.0524 56.1064 48.028 56.1145C47.9141 56.3022 47.8084 56.5307 47.7026 56.7266C47.605 56.9225 47.5237 57.0938 47.5318 57.151Z" fill="white"/>
<path d="M36.7118 40.168L36.541 40.2333C36.6224 40.2006 36.6793 40.1843 36.7118 40.168Z" fill="white"/>
<path d="M33.1976 55.4616V55.2168C33.1976 55.2168 33.1976 55.2658 33.1895 55.2902C33.1895 55.3474 33.1976 55.4045 33.1976 55.4616Z" fill="white"/>
<path d="M32.9866 44.6157C32.9866 44.6157 32.9866 44.6157 32.9785 44.6157C32.9622 44.632 32.946 44.6484 32.9297 44.6647L32.9866 44.6157Z" fill="white"/>
<path d="M34.4667 43.6611C34.3691 43.7346 34.2714 43.808 34.1738 43.8978C34.3365 43.7835 34.4179 43.7183 34.4667 43.6611Z" fill="white"/>
<path d="M32.8633 55.9106L32.8958 56.384C32.8958 56.2126 32.8796 56.0657 32.8633 55.9106Z" fill="white"/>
<path d="M43.8145 27.9185C43.8389 27.9837 43.8633 28.0409 43.8877 28.098C43.8633 28.0164 43.8389 27.9593 43.8145 27.9185Z" fill="white"/>
<path d="M37.6484 52.9397C37.6484 52.9397 37.7379 52.8907 37.7867 52.8662C37.7949 52.8499 37.7867 52.8499 37.6484 52.9397Z" fill="white"/>
<path d="M40.4453 53.307C40.6405 53.2173 40.8927 53.0377 41.0229 52.9316C40.8358 53.0377 40.6568 53.1438 40.4453 53.307Z" fill="white"/>
<path d="M42.3252 52.2461C42.3252 52.2461 42.2845 52.2706 42.252 52.2787C42.2764 52.2706 42.3008 52.2543 42.3252 52.2461Z" fill="white"/>
<path d="M35.638 55.8369C35.638 55.8369 35.5566 55.894 35.5078 55.9348C35.5404 55.9104 35.581 55.8777 35.638 55.8369Z" fill="white"/>
<path d="M48.0918 48.6154C48.0918 48.6154 48.0918 48.6154 48.1007 48.6064C48.1007 48.6064 48.1007 48.6064 48.0918 48.6064V48.6154Z" fill="white"/>
<path d="M48.8168 37.3932C49.4431 37.2871 50.1183 37.2055 50.8098 37.0994C51.5094 37.0097 52.2333 36.9117 52.9492 36.8383C53.3071 36.8056 53.6732 36.7648 54.0311 36.7322L54.2996 36.7077L54.5436 36.6914C54.7063 36.6832 54.869 36.6751 55.0236 36.6751C55.6499 36.6751 56.2519 36.773 56.6505 36.977C56.8457 37.0178 57.0572 37.1157 57.2037 37.2708C57.3501 37.4259 57.464 37.6462 57.4884 37.8992C57.4477 37.9237 57.4152 37.94 57.3745 37.9645C57.3908 38.0951 57.3908 38.2501 57.3745 38.4215C57.3338 38.5194 57.3501 38.4215 57.3582 38.3481C57.3582 38.2746 57.3663 38.2175 57.3094 38.3807C57.3257 38.446 57.3338 38.5194 57.3338 38.5929C57.3094 38.601 57.1955 38.9356 57.0654 39.1641C57.0084 39.2784 56.9515 39.36 56.9433 39.3518C56.9352 39.3518 56.9677 39.2458 57.0491 39.0172C56.9759 39.1886 56.8864 39.3682 56.7888 39.5477C56.6912 39.7272 56.5691 39.9149 56.4553 40.0945C56.2356 40.4699 55.9834 40.8208 55.7394 41.1799C55.3977 41.6451 55.6174 41.5145 55.2107 42.0041C55.1049 42.0858 55.3327 41.8083 55.2676 41.8164C54.9666 42.1837 54.7144 42.4612 54.5273 42.7305C54.324 42.9835 54.1613 43.2038 54.0067 43.4323C53.6813 43.873 53.3641 44.3055 52.6889 44.8931L52.7865 44.7789C52.5913 45.0237 52.1439 45.3909 52.152 45.4154C52.4042 45.3583 52.3554 45.1543 52.8028 44.836C52.8435 44.9584 52.331 45.342 52.4123 45.3828C52.0707 45.6358 51.9242 45.8479 51.6395 46.0846C51.3792 46.256 51.0782 46.4926 50.7854 46.713C50.5007 46.9333 50.2159 47.1292 50.0044 47.2353C49.7767 47.4475 49.557 47.7413 49.012 48.1248C48.5809 48.3207 49.0608 47.9943 48.5158 48.3289L48.4588 48.4431C48.0114 48.7287 48.0765 48.6716 48.0765 48.6308C47.6047 48.9409 47.7267 48.9654 47.1085 49.3163L47.4095 49.047C46.9783 49.3571 46.7912 49.4551 46.1648 49.8386C46.1648 49.7978 46.417 49.6428 46.596 49.5448C46.2137 49.6754 46.0347 49.9366 45.8476 50.0426C45.9127 50.0426 46.3519 49.7815 46.173 49.9692C45.8557 50.1487 45.5547 50.4507 45.2944 50.516L45.6036 50.2548C44.9772 50.6874 45.2944 50.5323 44.5298 50.9567C44.5704 50.9322 44.5379 50.924 44.5542 50.9077C44.1149 51.2586 43.456 51.5606 42.7483 51.9523L42.8784 51.8625C42.6018 52.0421 42.4717 52.1808 42.309 52.2624C42.732 52.0666 42.6262 52.1482 42.6913 52.1808C42.1056 52.3848 41.9267 52.7521 41.0156 53.1683C41.0156 53.1275 41.2108 52.9724 41.4711 52.8745C41.7233 52.6133 41.7233 52.5154 42.2358 52.1726C41.9185 52.3848 41.5281 52.6052 41.5931 52.5236L41.5362 52.6705C41.3328 52.7847 41.1701 52.8663 41.0237 52.9479C40.9668 53.054 41.4793 52.8174 41.0237 53.1112C40.5112 53.4294 40.6983 53.1683 40.6332 53.2581C39.9174 53.6824 40.3729 53.5192 39.6571 53.862C39.7222 53.8212 39.8523 53.7314 39.9174 53.7069C39.3968 53.9354 38.6809 54.3679 38.4775 54.3353C38.5426 54.27 38.5426 54.2292 38.7379 54.1394V54.1639C39.2585 53.7967 38.2823 54.4251 38.4125 54.2374C38.4775 54.2782 37.7536 54.6291 37.4282 54.776L37.5583 54.7923C36.5659 55.5268 37.5583 54.6372 36.5008 55.1759C35.8419 55.5513 36.7693 55.0698 36.3706 55.3228C35.907 55.5349 35.7117 55.5513 35.0447 55.9022C34.8495 55.9675 34.4509 56.1062 34.3858 56.0409C34.28 56.098 34.1417 56.1633 33.9953 56.2286L35.0366 57.061C35.061 56.7754 35.2725 56.4653 35.3294 56.3102C35.1667 56.4816 35.126 56.604 35.0854 56.7101C35.0528 56.8162 35.0447 56.9141 35.0203 57.061L33.9953 56.2449C34.1092 56.196 34.2556 56.1389 34.4427 56.0817L34.2394 56.2613C34.1743 56.2939 34.1092 56.3184 34.036 56.3592L34.9064 57.0529C34.9308 56.8489 34.9959 56.6367 35.1016 56.4408C35.2074 56.2449 35.3619 56.0736 35.484 55.9675C35.4189 56.0083 35.3864 56.0246 35.4026 55.9675C35.6629 55.6818 35.8663 55.4941 36.0778 55.3146C36.2893 55.1432 36.5089 54.98 36.8913 54.7597C37.0296 54.7597 36.574 55.0208 36.2893 55.2248C36.7693 54.98 36.7774 54.9229 37.5258 54.4822C37.599 54.5148 37.0214 54.7841 36.9645 54.8984L37.778 54.3761C37.778 54.3761 37.778 54.3761 37.778 54.3843C37.8512 54.221 38.4125 54.0089 38.9087 53.6824C39.5107 53.3315 39.8442 53.0948 40.1045 52.899C40.3648 52.6949 40.5519 52.5236 40.8773 52.2951C41.0725 52.2216 41.1376 52.2135 41.0725 52.2787C40.7471 52.4012 40.8203 52.4093 40.7309 52.4909C41.1376 52.2543 41.6826 52.091 41.4711 52.2543C42.1138 51.8625 41.2108 52.3359 41.5931 52.0829L42.4961 51.6014C42.3659 51.6014 42.0405 51.7646 42.4961 51.479C42.8866 51.2586 43.0818 51.1689 43.6024 50.8995C43.5373 50.9648 43.7976 50.8914 43.4072 51.0872C43.6675 50.973 44.058 50.7771 44.1881 50.6547C43.5943 50.8995 45.1073 50.1406 44.6437 50.2793L45.2375 50.0426C45.1073 50.1079 45.1073 50.1487 44.9121 50.2303C45.1073 50.2303 45.3758 49.9774 45.571 49.8713C45.7825 49.7897 46.3113 49.5448 46.3682 49.553C46.539 49.4469 46.9946 49.251 47.1003 49.251C47.3688 49.1123 47.1003 49.1939 47.1736 49.1286C47.4827 48.9899 47.7918 48.8512 48.109 48.7124C48.1741 48.7369 48.3043 48.8185 48.166 48.9001C48.5076 48.7043 48.2392 48.7206 48.7761 48.4839C48.4995 48.6961 49.5082 48.2391 49.1015 48.5329C49.435 48.4594 50.3054 48.084 50.7772 47.8718C51.0538 47.6841 50.2403 48.0514 50.2485 47.9698C50.9237 47.676 51.2653 47.472 51.5663 47.3087C51.8673 47.1374 52.1276 46.9905 52.6401 46.8109L52.3716 46.8925C52.9899 46.6151 52.9248 46.6477 53.2665 46.4518C53.12 46.6069 54.0555 46.3947 55.0805 46.0683C55.1537 45.9948 54.4785 46.1662 54.625 46.0438C54.8527 45.9622 55.0805 45.8887 55.3164 45.8235C55.3652 45.8235 55.292 45.8561 55.2107 45.8887C55.8289 45.6766 56.3902 45.7255 56.5529 45.5868L56.8783 45.6031H56.9596L57.0003 45.6194L57.0816 45.6439C57.041 45.6276 57.0003 45.6113 56.9515 45.6031C56.984 45.546 57.4314 45.497 57.5453 45.4889C57.7975 45.4644 57.9765 45.4725 58.0903 45.497C58.1473 45.5133 58.1961 45.5297 58.2286 45.546H58.2449V45.5541C58.2449 45.5541 58.2449 45.5541 58.2368 45.5623L58.1961 45.6113C58.1961 45.6113 58.1391 45.6684 58.1066 45.701C58.2124 45.6194 58.5215 45.3338 58.2937 45.6766C58.1636 45.7255 58.0253 45.8969 57.9032 46.0601C57.7731 46.2152 57.6511 46.3702 57.6185 46.3539C57.5779 46.411 57.5046 46.4845 57.4477 46.5416C57.4233 46.5661 57.3826 46.6069 57.3582 46.6477C57.3257 46.6885 57.3094 46.713 57.3175 46.7293L57.285 46.6395C57.3338 46.7701 56.7481 47.4312 56.2682 47.9126C56.2682 47.7902 56.138 47.929 55.9672 48.1003C55.7964 48.2717 55.5767 48.4839 55.4222 48.5247C55.4059 48.7043 54.5517 49.3653 54.5273 49.5285C54.1369 49.8794 54.1043 49.757 53.9823 49.8141L53.8196 50.01C53.5918 50.1406 52.8272 50.7771 52.3635 51.1525L52.0137 51.6014L51.8347 51.7075C51.7859 51.7891 51.4605 52.1155 51.6883 51.9523L51.4687 52.1482C51.5175 52.2543 51.1758 52.4501 50.7854 52.9235C50.6715 53.0051 50.6796 52.9643 50.7691 52.8582C50.5576 53.0703 50.6064 52.9398 50.4681 53.0295C50.6308 52.8908 49.858 53.9762 50.4437 53.4131C50.5088 53.4131 50.2159 53.7803 50.0044 53.9844L49.8092 54.0497C49.7523 54.1639 49.7035 54.2863 49.6546 54.4006C49.5814 54.4904 49.5163 54.572 49.4594 54.6372C49.3943 54.7107 49.3293 54.776 49.2723 54.8331C49.1422 54.9637 49.0283 55.1024 48.8981 55.2901C48.9632 55.1922 49.0201 55.0861 49.0608 54.9963C49.1096 54.9066 49.134 54.8249 49.134 54.7923C49.134 54.7189 48.9713 54.8331 48.5971 55.4125C48.7842 55.1106 48.9144 54.8821 49.0527 54.6862C49.0852 54.6372 49.1177 54.5883 49.1503 54.5475C49.1747 54.5148 49.191 54.4822 49.2154 54.4495C49.256 54.3924 49.2967 54.3271 49.3293 54.27C49.191 54.4332 49.1177 54.5067 49.2967 54.221C49.0771 54.5148 48.9713 54.6699 48.9388 54.7352C48.9144 54.776 48.89 54.8168 48.833 54.9066C48.7842 54.9963 48.6947 55.1351 48.5483 55.3636C48.5158 55.3309 48.4507 55.3799 48.3205 55.5513C48.2555 55.6329 48.166 55.7471 48.0602 55.894C47.9626 56.0409 47.8081 56.2286 47.7104 56.4408C47.8243 56.2286 48.0196 56.0001 48.1741 55.7879C48.1741 55.8124 48.1497 55.8614 48.1253 55.9022C48.288 55.6655 48.3531 55.6002 48.4182 55.5513C48.3612 55.641 48.2148 55.9103 48.0765 56.1552C47.9708 56.4 47.8731 56.6285 47.7918 56.7183C48.1172 56.2449 47.9545 56.6122 47.7755 56.9876C47.7348 57.0855 47.686 57.1835 47.6454 57.2651C47.6128 57.3548 47.5803 57.4364 47.5477 57.5017C47.5071 57.6241 47.5071 57.6486 47.6047 57.4854C47.6047 57.5507 47.3444 58.1138 47.2305 58.2525C47.3118 58.0159 47.263 58.0648 47.1736 58.2281C47.1329 58.3015 47.0678 58.4158 47.0027 58.5218C47.0027 58.53 46.9865 58.5545 46.9865 58.5545V58.5708V58.6035C46.9865 58.6279 46.9865 58.6443 46.9865 58.6687C47.0434 58.6606 47.0597 58.6687 47.0027 58.7014C47.1573 58.6279 47.0841 58.6443 46.9946 58.6606C47.0027 58.5708 46.9865 58.5055 47.0841 58.5137C47.1003 58.5137 47.1085 58.53 47.1247 58.5382C47.4989 58.3831 47.7023 58.3505 47.9057 58.2933L47.686 58.4076L48.3612 58.1628C48.5239 58.0403 47.7755 58.3423 48.4507 58.0159C48.5971 57.9751 49.2642 57.6568 49.2154 57.7139C48.8574 57.9424 49.0201 57.9587 48.4019 58.2444C48.6622 58.122 49.1828 57.9016 49.5814 57.6976C49.98 57.4936 50.2078 57.3548 49.8987 57.4528L50.4762 57.1835C50.2891 57.2487 49.9556 57.3793 49.8173 57.4201C49.679 57.4609 49.7279 57.4201 50.2566 57.1508V57.1753L50.6145 56.9631C50.7366 56.8978 50.8586 56.8162 50.9318 56.7591L51.1921 56.6775C51.1921 56.6775 51.2572 56.5959 51.4605 56.4898C51.5256 56.4898 51.7209 56.3918 51.7209 56.4327C52.3066 56.1062 52.2415 56.0899 52.3066 56.0246C52.632 55.8369 52.7621 55.7798 52.6319 55.9185C52.8597 55.7879 53.1607 55.6166 53.4536 55.4533C53.7464 55.2901 54.0148 55.1269 54.1775 55.0535C54.747 54.6536 54.0474 55.1106 54.3646 54.8413C54.6575 54.7515 55.1456 54.4577 55.6743 54.0823C56.2031 53.7151 56.7562 53.2744 57.2118 52.9316C56.8945 53.0051 57.4477 52.7276 57.5453 52.4991C57.3745 52.6868 58.4645 51.936 57.6917 52.5725C57.8463 52.4501 58.009 52.3195 58.1636 52.189C58.3507 52.091 58.1636 52.2624 57.9927 52.4175C57.8219 52.5644 57.6755 52.7031 57.9602 52.5562C58.4971 52.1318 58.7574 51.732 59.4 51.2505C59.2536 51.5035 59.8556 50.8261 59.7661 51.0383C59.6603 51.177 59.4814 51.3076 59.3106 51.4626L59.4326 51.3892C60.5877 50.4344 59.6929 51.0138 60.246 50.4425C60.9131 49.8223 60.8236 50.0182 60.8968 50.0182C61.0107 49.9366 61.3442 49.6101 61.4988 49.4224C61.1327 49.8549 60.7016 50.0835 60.8561 49.8631C61.2303 49.6836 61.8404 48.9328 61.995 48.7287C60.9863 49.553 61.3442 49.3571 60.3681 50.0916C60.2623 50.2303 60.3437 50.2875 59.7742 50.7445C60.0915 50.4017 59.7173 50.72 59.6115 50.7935C59.758 50.7526 59.2373 51.1444 59.0828 51.2994C58.9038 51.3892 59.335 50.9077 58.7574 51.3729L58.733 51.5687C58.4971 51.732 58.7737 51.4137 58.31 51.8217C58.5296 51.5524 58.1717 51.7972 58.8062 51.2505C57.9765 51.7891 57.6592 52.2543 57.0654 52.7602C57.1223 52.7031 57.1223 52.6868 57.1793 52.6297C57.0654 52.7602 56.8295 52.9316 56.6424 53.0703C56.2112 53.3397 56.9352 52.7847 56.8051 52.8337L56.138 53.3152C56.138 53.3152 56.1217 53.3152 56.1136 53.3152C55.9509 53.4539 55.7801 53.5845 55.7069 53.5926C55.8858 53.4131 55.9428 53.3233 56.0567 53.2009L55.3978 53.7722C55.4547 53.6824 54.7714 54.1068 55.2595 53.7314C54.9097 53.9762 54.5599 54.2047 54.2101 54.4414L54.0718 54.4169C53.8196 54.5883 53.8196 54.6128 54.1369 54.4332C53.9498 54.5393 53.5593 54.8249 53.2258 55.0453C52.8923 55.2656 52.6238 55.4207 52.6808 55.282C51.8592 55.8369 51.5175 55.992 50.4844 56.5714C50.8667 56.3266 50.6145 56.4326 50.4193 56.5061C50.2078 56.5877 50.037 56.653 50.3949 56.4571C50.1834 56.5387 50.0614 56.6122 49.9312 56.702C49.8092 56.7917 49.679 56.8815 49.4838 56.9794C49.1747 57.0774 49.4513 56.8489 49.7685 56.6612L49.3618 56.8978L49.3862 56.8652L48.9876 57.11C48.8412 57.1427 48.8656 57.11 48.8818 57.0774C48.8981 57.0529 48.8981 57.0284 48.7436 57.0937L48.4995 57.2977H48.4344C48.4344 57.2977 48.3856 57.2977 48.3694 57.2977C48.3694 57.314 48.3531 57.3222 48.3287 57.3467C48.288 57.3793 48.2961 57.3548 48.3043 57.3303C48.3205 57.2732 48.3612 57.159 48.4182 57.0202L48.4588 56.9958L48.5809 56.6856C48.5565 56.8162 48.5971 56.7346 48.6541 56.6285C48.711 56.5306 48.7924 56.4163 48.8086 56.449C48.9713 56.196 48.9469 56.1878 49.2154 55.7553L49.0852 55.8532C49.2642 55.5513 49.2967 55.5431 49.3211 55.5513C49.3455 55.5594 49.3781 55.5757 49.5326 55.3636H49.4513C49.5245 55.2901 49.5896 55.2167 49.6546 55.1514C49.6872 55.1106 49.7197 55.0779 49.7523 55.0453C49.7929 54.9963 49.8255 54.9555 49.8661 54.9066C50.0126 54.727 50.1346 54.5475 50.2729 54.3843C50.5413 54.066 50.7772 53.7477 51.0863 53.5029C50.7772 53.8293 50.9074 53.8048 50.8993 53.7885C51.1352 53.5437 51.4443 53.2172 51.7615 52.9071C52.0869 52.597 52.4042 52.2706 52.6482 52.0094C52.9004 51.9115 52.9573 51.887 53.5268 51.4463C53.9254 51.0954 53.9742 51.0383 54.0718 50.8832C54.4785 50.5731 55.17 49.8958 55.2351 49.9284C55.292 49.806 55.5848 49.6264 55.7719 49.4061L55.8289 49.3898L55.7557 49.3735C56.5203 48.8593 56.8376 48.2554 57.5535 47.6597L57.4558 47.7902L57.708 47.4801C57.7731 47.4556 57.6755 47.5862 57.6836 47.627L57.9927 47.2924C58.0415 47.2435 58.1229 47.1455 58.1798 47.0639L58.3751 46.8191L58.7655 46.3213C58.8957 46.158 59.034 45.9867 59.1316 45.8235L58.977 46.0193L58.7981 46.2152C58.9608 46.0112 59.034 45.8398 59.1397 45.6766C59.2373 45.5052 59.3431 45.3338 59.522 45.089C59.3431 45.4399 59.4488 45.2848 59.6278 45.0074C59.8393 44.8115 59.4977 44.8523 59.3675 44.8115C59.2048 44.787 59.0909 44.7625 59.0746 44.7462C59.2455 44.7544 59.4244 44.7707 59.6034 44.7952C58.9038 44.7054 58.9201 44.7136 58.8957 44.7789C58.4645 44.7462 58.3507 44.7054 58.2286 44.6728C58.1636 44.6564 58.0985 44.6483 58.0009 44.6401C57.8951 44.6401 57.7568 44.632 57.529 44.6646C57.7324 44.6483 57.9276 44.6646 58.131 44.6646C58.2042 44.6809 58.131 44.7054 57.9846 44.7217C57.9114 44.7217 57.83 44.738 57.7406 44.738C57.6511 44.738 57.5453 44.7544 57.4477 44.7625C57.3582 44.7625 57.0816 44.738 57.3908 44.7217C57.2199 44.7299 57.0003 44.7625 56.8132 44.787C56.6586 44.8033 56.5041 44.836 56.3495 44.8523C56.0567 44.9013 55.7963 44.9584 55.6825 44.9992C55.3977 45.0482 55.4791 44.9829 55.6255 44.9258C55.0724 45.089 54.9503 45.1298 54.8202 45.1624C54.6982 45.1951 54.568 45.2277 54.0311 45.4399V45.3991L53.6813 45.5705L53.1363 45.6847L53.3397 45.6602C52.9899 45.7908 52.7865 45.9051 52.3716 46.0356L52.5181 45.9214C51.55 46.3213 51.3548 46.2723 50.4518 46.7212C50.3868 46.7375 50.5251 46.664 50.5901 46.6232C49.7604 47.0558 49.9068 46.7946 49.0852 47.2598C49.134 47.219 49.0283 47.2353 49.0608 47.2108L48.6866 47.4067V47.3251L48.41 47.5617L48.1416 47.5944L48.0033 47.6923C47.5396 47.7413 46.9946 48.1085 46.3926 48.2717L46.5228 48.3125C45.1724 49.1449 43.2445 49.7652 41.6094 50.7445V50.6629L40.9586 51.1117C40.5682 51.2668 41.1539 50.9322 41.0237 50.9648C40.3079 51.4055 40.7634 51.226 39.9174 51.7238C39.4618 51.9278 40.0475 51.5851 40.2428 51.4545C39.4618 51.9278 38.3067 52.6378 37.7373 52.9398C37.7373 52.9561 37.7047 52.9887 37.7373 52.9724C37.2248 53.3152 36.5252 53.7069 35.9558 54.066C35.9558 54.0252 36.0941 53.9354 36.2324 53.8375C36.029 53.9599 35.728 54.1231 35.5572 54.2782L35.7443 54.0741C35.5165 54.2129 35.183 54.4577 34.9064 54.7025C34.6217 54.9392 34.4021 55.2003 34.3288 55.2248C34.3614 55.2085 34.3858 55.2085 34.3532 55.2738C34.3207 55.3391 34.2394 55.4533 34.0848 55.69C34.0116 55.7553 33.914 55.894 33.8163 56.1144C33.7269 56.3347 33.6537 56.6203 33.6293 56.9305L33.5316 58.1628L34.5241 57.6405C34.8006 57.4936 35.1016 57.3467 35.3782 57.2406C35.3131 57.3059 34.8413 57.5262 34.9715 57.4609C35.305 57.3385 35.5734 57.1508 35.85 56.9876L35.7768 57.0692L37.2492 56.2939C37.5176 56.2939 38.6484 55.5839 38.5752 55.7063C39.1039 55.4452 38.1115 55.8859 38.7785 55.535C38.9738 55.486 39.3724 55.2085 39.3724 55.2901L39.3073 55.3309L39.771 55.0861L39.5107 55.2983C39.9093 55.0779 40.1696 54.8576 40.1696 54.8005C40.5682 54.6372 41.0888 54.3271 41.284 54.2863L41.1539 54.3761C42.2032 53.7803 42.9923 53.6008 43.757 53.0214C43.8221 52.9969 43.822 53.0214 43.6919 53.0867L44.3427 52.7194L44.2125 52.8582L45.2375 52.1645V52.2053C45.9452 51.8054 47.0353 51.128 47.9138 50.5568L47.7918 50.6547C48.7354 49.9855 48.7435 50.0835 49.4269 49.5693C49.4106 49.5938 49.3862 49.6101 49.3618 49.6346C49.5733 49.4959 49.7767 49.349 49.9882 49.2021L49.8661 49.3326C50.2891 48.9491 51.2328 48.4676 50.9155 48.6227C51.1596 48.4105 51.5744 48.0269 51.6232 47.9371C52.2822 47.4148 51.8103 47.8555 52.2333 47.5454C52.7052 47.1618 52.754 47.0476 53.3966 46.5171V46.5579C53.6976 46.2968 53.8522 46.1009 54.2426 45.7255L54.1369 45.8479C54.4379 45.5215 54.6412 45.3256 54.8283 45.1624C55.0154 44.9992 55.1781 44.8278 55.3652 44.5095C55.5035 44.379 55.6906 44.1831 55.837 44.0199C55.9834 43.8567 56.1055 43.7343 56.1136 43.7669C56.4634 43.3262 56.74 42.9018 57.0328 42.502C57.3013 42.0776 57.5941 41.6695 57.8626 41.1717C57.9602 41.1309 57.9846 41.0738 58.0415 40.9677C58.0985 40.8535 58.188 40.6984 58.3832 40.3964L58.3018 40.4128C58.4971 40.0455 58.7004 39.6375 58.8469 39.156C58.9933 38.6826 59.099 38.1114 59.0014 37.4993C58.9526 37.1974 58.855 36.9036 58.7167 36.6261C58.6435 36.4874 58.5703 36.3486 58.4727 36.2344C58.4239 36.1772 58.3832 36.112 58.3344 36.0548L58.1798 35.8916C57.7487 35.4754 57.2525 35.2387 56.7807 35.1L56.7481 35.0266C56.618 35.0184 56.4878 35.0021 56.3576 35.0021C55.8614 34.8878 55.3408 34.847 54.812 34.8389C54.5517 34.8389 54.2833 34.847 54.0393 34.8633C53.7952 34.8797 53.5512 34.896 53.3153 34.9205C52.3554 34.9858 51.4443 35.0837 50.7528 35.1571C50.2973 35.2469 49.6221 35.4101 48.8981 35.4836L48.9713 35.4672C47.7186 35.6876 46.4008 35.9161 45.0341 36.1446C45.1155 36.1038 44.9772 36.112 45.1236 36.063C44.8145 36.2017 44.3264 36.2262 44.0336 36.2833L44.3833 36.2589C44.1962 36.3241 43.9603 36.3731 43.7488 36.4058C43.5373 36.4384 43.3421 36.4547 43.2445 36.4547L42.6507 36.6587C42.61 36.6587 42.5449 36.6587 42.5368 36.6587L42.4391 36.7159H42.0975C41.9511 36.7567 41.1539 36.9852 40.9261 37.1321C40.861 37.1158 40.2916 37.2463 40.7227 37.1158C40.3485 37.2055 39.9825 37.3116 39.6164 37.4095C39.2503 37.5156 38.8843 37.6054 38.5182 37.7197C38.6321 37.6952 38.7541 37.6707 38.868 37.6462C38.9249 37.687 38.2823 37.94 37.9325 38.0216C38.3637 37.8258 37.9488 37.9237 37.7373 37.94C37.4526 38.0706 38.0139 37.9155 37.8674 37.9971C37.6885 38.0787 37.4038 38.1848 37.1353 38.2828C36.8669 38.3807 36.6228 38.4705 36.5252 38.4868L36.7367 38.3807C36.2405 38.5847 35.9802 38.5602 35.484 38.7398C35.061 38.952 34.7193 39.0417 34.8495 39.107C34.2231 39.3763 34.581 39.1315 34.3695 39.2049C34.2312 39.2866 33.9302 39.409 33.6618 39.5151C33.3852 39.6212 33.133 39.7109 33.068 39.7109C32.9215 39.8578 32.4985 40.0292 32.0999 40.1924C31.7013 40.3638 31.3353 40.5189 31.2946 40.6086L30.7577 40.78C30.7577 40.829 30.6845 40.9351 30.2859 41.1636C29.8873 41.3268 29.9524 41.2207 29.8222 41.2533L29.6188 41.5145C29.0494 41.7593 28.4637 42.0858 27.8455 42.4285C27.6909 42.5101 27.5363 42.5999 27.3818 42.6897C27.2272 42.7876 27.0645 42.8855 26.9018 42.9916C26.5846 43.2038 26.2673 43.4241 25.9582 43.669C25.34 44.1586 24.7543 44.7299 24.2581 45.4317C24.1279 45.6031 24.0222 45.7908 23.9083 45.9785C23.8757 46.0275 23.8513 46.0683 23.8269 46.1254L23.7293 46.3213C23.648 46.4845 23.5829 46.6395 23.5341 46.7946C23.4527 47.1047 23.3226 47.4312 23.3144 47.7249C23.2982 47.8718 23.2738 48.0269 23.2656 48.1738C23.2656 48.3125 23.2738 48.4513 23.2819 48.5818C23.2819 48.639 23.29 48.7043 23.2982 48.7614C23.3063 48.8185 23.3144 48.8756 23.3226 48.9328C23.3388 49.047 23.3632 49.1694 23.3795 49.2918C23.4039 49.4224 23.4202 49.5448 23.4446 49.6754L23.4771 49.8713L23.4934 49.9692V50.0182C23.4934 50.0182 23.5015 50.059 23.5259 50.0426C23.9896 49.8631 24.4696 49.6836 24.9658 49.4959C25.0878 49.4469 25.2098 49.4061 25.3318 49.3571L25.4213 49.3245L25.5271 49.2674L25.7386 49.1449C25.9745 49.0062 26.2185 48.8756 26.4544 48.7369C26.7636 48.5574 27.0808 48.3778 27.3899 48.2064L27.2598 48.3044C27.6665 48.0759 28.0814 47.8555 28.4881 47.627C28.1871 47.7902 27.8861 47.9371 27.5852 48.0922C27.8455 47.9208 28.0407 47.7821 28.2929 47.627C29.6432 46.8925 31.4166 45.8479 32.9541 44.7054C33.8814 43.8648 33.7025 44.3626 34.6054 43.571C34.5322 43.6445 34.5159 43.6853 34.4427 43.7506C34.9471 43.3589 35.3375 43.0487 35.7117 42.7305C36.0941 42.4203 36.4683 42.0939 36.9482 41.6614C36.9157 41.8817 37.599 41.1472 37.5583 41.286L37.6071 41.1717C37.8512 41.0248 38.3799 40.6168 38.3311 40.7147L38.7216 40.2985L38.7948 40.323C39.3805 39.8578 40.5763 38.7724 40.9424 38.6092C41.2759 38.2828 41.6664 37.9237 42.0894 37.5238C42.5042 37.1239 42.9598 36.7403 43.4479 36.2017C43.6919 35.9324 43.9278 35.6223 44.1312 35.2551C44.3345 34.8878 44.481 34.4716 44.5623 34.0799C44.725 33.2883 44.7087 32.5701 44.6681 31.9336C44.5948 31.5745 44.5135 30.8318 44.3915 30.2524C44.3671 30.0402 44.3589 29.8362 44.3264 29.624C44.1718 29.0446 43.8953 28.4733 43.7407 27.951C43.7488 27.951 43.7651 27.9674 43.7814 28.0082C43.5536 27.4532 43.3584 26.9064 43.0411 26.4494C42.7401 25.87 42.4229 25.3151 42.5856 25.4456C42.5124 25.4538 42.3415 25.16 42.1544 24.8744C42.065 24.7275 41.9755 24.5887 41.9023 24.4745C41.829 24.3684 41.7802 24.2949 41.7802 24.2949C41.7802 24.2949 41.7558 24.2705 41.7152 24.2133C41.6745 24.1644 41.6094 24.0909 41.5199 23.993C41.4386 23.8951 41.3328 23.7808 41.1945 23.6502C41.0644 23.5115 40.9098 23.3728 40.7227 23.2095C40.3567 22.8994 39.8848 22.5403 39.2747 22.2221C38.6646 21.912 37.8918 21.6182 36.9564 21.6182C36.4927 21.6182 35.9883 21.7161 35.5002 21.9038C35.0122 22.1078 34.5566 22.4179 34.1499 22.8178C33.7431 23.2177 33.4259 23.7155 33.19 24.2378C32.9459 24.7601 32.7832 25.3069 32.6612 25.8537C32.4334 26.9554 32.3765 28.0735 32.3684 29.1833C32.3684 30.2524 32.3684 31.3541 32.3684 32.4722C32.3684 41.4002 32.4497 51.2913 32.767 55.1759C32.8239 55.437 32.8646 56.1552 32.9378 55.8859C32.9622 56.4408 32.8565 56.702 32.9134 56.8081C32.9541 56.0491 33.068 57.0447 33.1412 56.3021L33.1574 56.7754C33.1981 56.8733 33.1086 56.1307 33.19 56.2449L33.0761 56.1144C33.0924 55.7308 33.1168 55.5186 33.1574 55.3799C33.1168 55.0208 32.9622 54.7841 33.0273 53.9191V54.1558C33.0273 53.4539 33.1086 53.7232 33.1249 53.5763V53.7314L33.1818 53.1356C33.1412 53.5845 33.2306 54.3271 33.2306 53.9354C33.2632 53.0948 33.2062 54.1558 33.19 53.5192C33.19 53.1275 33.2469 53.2417 33.2795 53.2581V52.5562C33.3283 52.5807 33.2795 53.0214 33.3283 52.7358L33.2713 51.8544C33.4015 51.6912 33.2062 50.8914 33.3364 50.4915C33.3689 51.128 33.3771 50.4344 33.4259 50.5323V48.9736C33.4422 48.8267 33.4584 49.3816 33.4503 49.1449C33.4828 48.8512 33.4178 48.6634 33.4178 48.5084C33.4503 48.3697 33.4177 47.3414 33.5072 47.3903C33.5642 46.3294 33.4015 46.9415 33.4503 45.9622C33.4991 45.8316 33.4584 46.7456 33.5154 46.3049L33.4991 45.2848C33.5235 45.3746 33.5804 45.4807 33.5723 45.8643C33.6455 43.0977 33.9221 41.6124 33.857 39.0825C33.9221 38.7235 33.8977 39.3355 33.9384 39.5885C33.857 37.7605 34.0767 37.0178 34.0767 35.4591L34.0279 35.4346C34.1092 34.3492 34.1255 33.1495 34.1336 31.9172C34.1336 31.3052 34.1336 30.6768 34.1336 30.0484C34.1336 29.7383 34.1336 29.4282 34.1417 29.118C34.1417 28.8161 34.158 28.5141 34.1824 28.2285C34.1661 28.3183 34.1499 28.4162 34.1336 28.506C34.0929 28.1795 34.1092 27.6572 34.1336 27.2737C34.1661 27.2247 34.2068 27.5512 34.2719 26.8983C34.2312 27.0289 34.1824 27.3063 34.1661 27.2247C34.2556 26.7351 34.3695 26.123 34.5973 25.5028C34.7112 25.1926 34.8576 24.8907 35.0366 24.6132C35.2237 24.3439 35.4433 24.1072 35.7117 23.9195C36.2405 23.5441 36.9075 23.4217 37.599 23.5849C37.9407 23.6666 38.2904 23.8053 38.6158 23.9848C38.9412 24.1725 39.2503 24.3847 39.5269 24.6214C39.9093 24.9315 40.2753 25.2987 40.5844 25.6986C40.9098 26.1148 41.2108 26.58 41.4711 27.0615C41.9999 28.0245 42.4066 29.0854 42.6507 30.179C42.7727 30.7257 42.854 31.2807 42.9028 31.8356C42.9435 32.3906 42.9679 32.9537 42.9028 33.4189C42.8703 33.6555 42.8215 33.8677 42.7483 34.0554C42.6751 34.2431 42.5774 34.4145 42.4473 34.594C42.187 34.9531 41.8128 35.304 41.406 35.6794C41.8941 35.2306 41.7721 35.5162 41.3816 35.8345C40.2265 36.5935 39.6164 37.4585 38.4531 38.2501C36.5333 39.9394 34.6217 41.1636 32.7832 42.6652L32.71 42.6407C32.409 42.8202 32.3521 42.91 32.0511 43.1303V43.1059C31.319 43.5792 30.4648 44.2157 30.0337 44.4606V44.5422C29.6107 44.8278 29.7897 44.6401 29.3585 44.9584V44.9176L28.8623 45.3093C28.8623 45.1706 27.6096 46.0683 27.2272 46.2233C26.9425 46.4029 26.5358 46.664 26.0802 46.9415C25.8931 47.0558 25.6979 47.17 25.5027 47.2843C25.462 47.3087 25.4213 47.3332 25.3807 47.3414C25.3807 47.3087 25.3481 47.3006 25.3156 47.3087C25.3156 47.2516 25.3318 47.1863 25.3562 47.1455C25.3562 47.1292 25.3562 47.1129 25.3562 47.0966C25.3562 47.0884 25.3562 47.0802 25.3562 47.0802L25.3725 47.0476L25.3969 46.9823L25.4701 46.8599C25.6572 46.5253 25.9094 46.1825 26.2267 45.8643C26.853 45.2114 27.6421 44.6238 28.4718 44.1668L28.4068 44.1097L28.846 43.8485C28.846 43.8485 28.9111 43.8485 28.846 43.8893C29.2284 43.7751 29.8466 43.2691 30.2371 43.1385C29.9768 43.1956 29.9198 43.2936 29.6595 43.4323C29.2853 43.6118 29.5863 43.3262 30.1069 43.1059V43.1303L30.4242 42.91C30.4893 42.9508 30.8065 42.8121 30.8797 42.8529C31.2458 42.6489 31.5874 42.4775 31.9128 42.3061C32.2382 42.1347 32.5473 41.9633 32.8646 41.8083C33.5072 41.5063 34.1417 41.1799 34.9552 40.8861C34.8169 41.0167 36.1022 40.4128 35.8175 40.6576C36.7693 40.2577 35.6223 40.6168 36.0371 40.372C36.3137 40.274 36.5822 40.1435 36.6472 40.1679C36.5252 40.2414 36.8913 40.1679 36.6716 40.2495L37.3224 40.0047C37.3875 39.9884 37.2492 40.0618 37.176 40.0945C37.8268 39.8252 38.4287 39.6701 39.0063 39.4987C39.592 39.3437 40.1614 39.2049 40.7553 38.9928C40.8366 38.9193 40.2753 39.1152 40.3485 39.0499C40.9424 38.8214 41.2271 38.7887 41.4874 38.7398C41.7558 38.699 42.008 38.65 42.5774 38.4868C42.5042 38.5276 42.4229 38.5602 42.3497 38.601C42.7157 38.4705 42.8622 38.3807 43.4885 38.2909C43.6105 38.3399 42.9842 38.4705 42.6913 38.5684C43.1143 38.4786 44.1718 38.2175 43.8302 38.2256C44.3264 38.0869 44.5298 38.1277 44.8064 38.0869C44.8064 38.0706 44.3264 38.1359 44.6192 38.0379C44.969 37.989 45.4083 37.9074 45.8639 37.8257C46.3275 37.7523 46.8075 37.6707 47.2305 37.5972C47.2305 37.6136 47.2874 37.6299 47.2142 37.6544C47.8813 37.4422 47.8325 37.6299 48.768 37.4667L48.8168 37.3932Z" fill="white"/>
<path d="M38.119 54.1968L37.8098 54.3682C37.8098 54.3682 37.8098 54.409 37.6797 54.5069L38.119 54.1968Z" fill="white"/>
<path d="M44.5703 50.8834C44.5703 50.8834 44.6435 50.8262 44.6679 50.8018C44.5947 50.8507 44.5784 50.867 44.5703 50.8834Z" fill="white"/>
<path d="M47.97 48.6308C47.7341 48.8021 47.97 48.6797 48.092 48.6144C48.092 48.5981 48.0757 48.59 47.97 48.6308Z" fill="white"/>
<path d="M46.4079 49.5449C46.351 49.5776 46.3266 49.602 46.3428 49.6102C46.4161 49.5612 46.4242 49.5449 46.4079 49.5449Z" fill="white"/>
<path d="M49.6777 53.8786C49.6777 53.8786 49.7265 53.8378 49.7591 53.8052C49.7428 53.8133 49.7103 53.846 49.6777 53.8786Z" fill="white"/>
<path d="M50.8008 52.8501C50.8496 52.8011 50.9228 52.7277 51.0123 52.6216C50.9147 52.7114 50.8496 52.7848 50.8008 52.8501Z" fill="white"/>
<path d="M40.7629 52.4668C40.6816 52.5158 40.6002 52.5647 40.5352 52.6219C40.6653 52.5484 40.7304 52.4994 40.7629 52.4668Z" fill="white"/>
<path d="M51.2246 52.3933L51.5093 52.1403C51.5093 52.1403 51.5093 52.1322 51.5093 52.124L51.2327 52.3933H51.2246Z" fill="white"/>
<path d="M49.3613 54.2538C49.4589 54.1396 49.5891 53.9763 49.6786 53.8784C49.5403 54.009 49.4427 54.1314 49.3613 54.2538Z" fill="white"/>
<path d="M55.2434 45.8726C55.2434 45.8726 55.219 45.8726 55.2108 45.8807C54.9505 45.9868 55.1132 45.9297 55.2434 45.8726Z" fill="white"/>
<path d="M52.3633 51.1771C52.3633 51.1771 52.3877 51.1526 52.404 51.1445L52.4772 51.0547L52.3714 51.1771H52.3633Z" fill="white"/>
<path d="M48.0273 56.1142C48.0843 56.0245 48.1331 55.9429 48.1656 55.8857C48.1168 55.9592 48.0599 56.049 47.9785 56.155C48.0111 56.1224 48.0192 56.1142 48.0273 56.1142Z" fill="white"/>
<path d="M57.6504 46.2644C57.6504 46.3134 57.6504 46.3379 57.6585 46.346C57.7073 46.2889 57.7155 46.2563 57.6504 46.2644Z" fill="white"/>
</g>
<defs>
<clipPath id="clip0_713_3453">
<rect width="157" height="71" fill="white"/>
</clipPath>
</defs>
</svg>
