<svg width="120" height="53" viewBox="0 0 120 53" fill="none" xmlns="http://www.w3.org/2000/svg">
<path d="M1.73438 27.0115V7.10303H4.19655V24.4651H12.0245V27.0176H1.73438V27.0115Z" fill="white"/>
<path d="M17.4524 12.4521H14.9902V19.1046H17.4524V12.4521Z" fill="white"/>
<path d="M25.8528 12.4521H23.3906V19.1046H25.8528V12.4521Z" fill="white"/>
<path d="M32.5114 18.4162C32.4927 17.6364 32.6855 16.8688 33.071 16.1865C33.4378 15.553 33.9788 15.0352 34.6378 14.6879C35.3466 14.3224 36.1363 14.1336 36.9383 14.1518C37.5041 14.1518 38.0699 14.2554 38.5922 14.4808C39.1332 14.7184 39.6368 15.0291 40.0969 15.3946L41.2907 13.8594C40.7435 13.3599 40.1155 12.9517 39.4254 12.6532C38.6047 12.306 37.7155 12.1354 36.814 12.1537C35.6389 12.1415 34.4762 12.3973 33.4192 12.8969C32.4057 13.3721 31.5414 14.1153 30.9197 15.0413C30.2917 15.9733 29.9746 17.1003 29.9746 18.4162C29.9746 18.6538 29.987 18.8792 30.0057 19.1046H32.5549C32.5238 18.8792 32.5114 18.6477 32.5114 18.4162Z" fill="white"/>
<path d="M53.0608 12.4521H45.1582V14.4016H50.6235V19.1046H53.0608V12.4521Z" fill="white"/>
<path d="M61.8337 18.3914C61.815 17.6177 61.9767 16.8502 62.3062 16.1496C62.5798 15.5587 63.015 15.0591 63.5622 14.6875C64.072 14.3464 64.6751 14.1697 65.2907 14.1697C65.7881 14.1697 66.2793 14.2672 66.7331 14.456C67.2679 14.6814 67.759 14.9982 68.1756 15.3942V19.1042H70.6378V7.10303H68.1756V11.5258L68.3062 13.6458H68.2316C67.7777 13.195 67.243 12.8234 66.6585 12.5492C66.0554 12.2812 65.4026 12.1533 64.7435 12.1593C63.8109 12.1593 62.8907 12.4274 62.1072 12.9269C61.2554 13.4691 60.5528 14.2123 60.0803 15.0957C59.558 16.0277 59.2969 17.1365 59.2969 18.4219C59.2969 18.6595 59.3031 18.8849 59.3217 19.1103H61.8647C61.8461 18.8788 61.8337 18.6473 61.8337 18.3975V18.3914Z" fill="white"/>
<path d="M23.3906 22.7351C22.7937 23.4357 22.2403 23.9352 21.7243 24.2459C21.202 24.5566 20.5989 24.715 19.9833 24.7089C19.0693 24.7089 18.4227 24.4591 18.031 23.9657C17.6393 23.4722 17.4466 22.6985 17.4466 21.6446V20.9258H14.9844V21.9614C14.9844 23.521 15.3201 24.715 15.9916 25.5374C16.6631 26.3598 17.7077 26.7801 19.1315 26.7801C19.9896 26.7984 20.8414 26.5791 21.5813 26.1466C22.3087 25.7019 22.9678 25.1536 23.5336 24.5139H23.6331L23.832 26.4877H25.8466V20.9258H23.3844V22.7351H23.3906Z" fill="white"/>
<path d="M30.8587 23.9169C31.4308 24.8368 32.2639 25.58 33.2587 26.0491C34.322 26.5487 35.4847 26.7984 36.666 26.7801C37.5551 26.7801 38.4318 26.6218 39.2587 26.305C40.0919 25.9882 40.8629 25.5313 41.5344 24.9526L40.465 23.393C39.9738 23.789 39.4266 24.1241 38.8484 24.3921C37.4805 24.983 35.9137 24.9404 34.5893 24.2703C33.9489 23.923 33.4204 23.4113 33.0598 22.7838C32.7427 22.2112 32.5624 21.5776 32.5313 20.9258H29.9883C30.038 22.0772 30.3303 23.0762 30.8587 23.9169Z" fill="white"/>
<path d="M53.0604 20.9258H50.623V26.4877H53.0604V20.9258Z" fill="white"/>
<path d="M68.1707 23.1801C67.7541 23.6613 67.2567 24.0695 66.6909 24.3863C66.2059 24.6482 65.665 24.7883 65.1116 24.7883C64.0857 24.7883 63.2774 24.4167 62.6991 23.6796C62.1706 23.0156 61.8909 22.1018 61.8411 20.9321H59.3105C59.3727 22.711 59.839 24.1182 60.7406 25.1417C61.6981 26.2382 62.9665 26.7865 64.5396 26.7865C65.267 26.7865 65.9883 26.6098 66.6287 26.2687C67.2567 25.9458 67.8349 25.5316 68.3447 25.0381H68.4194L68.6183 26.5002H70.6328V20.9321H68.1769V23.1801H68.1707Z" fill="white"/>
<path d="M7.41126 38.976H3.72421L2.89727 41.7295H1.69727L5.061 31.2026H6.07447L9.44441 41.7295H8.25063L7.41126 38.976ZM4.0724 37.8429H7.06929L5.57084 32.9206L4.07861 37.8429H4.0724Z" fill="white"/>
<path d="M18.3921 41.7354H17.2232L12.79 33.6209V41.7354H11.6211V31.2085H12.79L17.2356 39.3534V31.2085H18.3921V41.7354Z" fill="white"/>
<path d="M26.3058 38.976H22.6187L21.7918 41.7295H20.5918L23.9555 31.2026H24.969L28.3389 41.7295H27.1452L26.3058 38.976ZM22.9669 37.8429H25.9638L24.4654 32.9206L22.9731 37.8429H22.9669Z" fill="white"/>
<path d="M30.249 40.5964H34.421V41.7295H29.0801V31.2026H30.249V40.5964Z" fill="white"/>
<path d="M37.7042 36.4907L40.0047 31.209H41.3229L38.2887 37.8066V41.7298H37.126V37.8066L34.0918 31.209H35.4224L37.7104 36.4907H37.7042Z" fill="white"/>
<path d="M49.5915 32.3421H46.7625V41.7359H45.606V32.3421H42.7832V31.209H49.5915V32.3421Z" fill="white"/>
<path d="M53.1354 41.7359H51.9727V31.209H53.1354V41.7359Z" fill="white"/>
<path d="M62.7284 38.3914C62.6227 39.5062 62.2745 40.3651 61.6963 40.9683C61.118 41.5714 60.347 41.8759 59.3895 41.8759C58.3512 41.8759 57.518 41.4312 56.89 40.5357C56.2621 39.6463 55.9512 38.4523 55.9512 36.9597V35.9485C55.9512 34.9677 56.1004 34.1087 56.3926 33.3655C56.6849 32.6223 57.1014 32.0557 57.6361 31.6537C58.1709 31.2577 58.7926 31.0566 59.5014 31.0566C60.4341 31.0566 61.1864 31.3673 61.7522 31.9948C62.318 32.6223 62.6475 33.4812 62.7346 34.5839H61.5657C61.4662 33.7432 61.2486 33.134 60.9066 32.7563C60.5646 32.3786 60.0983 32.1897 59.4952 32.1897C58.7553 32.1897 58.1709 32.5187 57.7481 33.1766C57.3253 33.8346 57.1139 34.7666 57.1139 35.9789V36.9963C57.1139 38.1416 57.3128 39.0493 57.7108 39.7255C58.1087 40.4017 58.6683 40.7368 59.3833 40.7368C60.0299 40.7368 60.5211 40.5601 60.8693 40.2128C61.2113 39.8656 61.4413 39.2564 61.5532 38.3853H62.7222L62.7284 38.3914Z" fill="white"/>
<path d="M67.8954 37.0387C66.9006 36.6976 66.1731 36.2772 65.7192 35.7777C65.2653 35.2781 65.0415 34.6628 65.0415 33.9318C65.0415 33.1033 65.3213 32.4149 65.8747 31.8727C66.428 31.3305 67.1493 31.0625 68.0384 31.0625C68.6415 31.0625 69.1824 31.2026 69.655 31.4828C70.1275 31.7631 70.4944 32.1469 70.7555 32.6403C71.0166 33.1338 71.1472 33.6699 71.1472 34.2547H69.9783C69.9783 33.615 69.8104 33.1155 69.4685 32.75C69.1327 32.3845 68.6539 32.2017 68.0384 32.2017C67.4664 32.2017 67.0187 32.354 66.6954 32.6525C66.3721 32.9571 66.2166 33.3713 66.2166 33.9074C66.2166 34.34 66.3721 34.6994 66.6705 34.9979C66.9752 35.2964 67.4913 35.5645 68.2249 35.8142C68.9586 36.0579 69.5306 36.332 69.941 36.6305C70.3576 36.9291 70.6622 37.2702 70.8612 37.6662C71.0602 38.0622 71.1596 38.5251 71.1596 39.0612C71.1596 39.9141 70.8799 40.5964 70.3265 41.1081C69.7669 41.6199 69.027 41.8757 68.0944 41.8757C67.4912 41.8757 66.9254 41.7356 66.4032 41.4615C65.8809 41.1873 65.4767 40.8035 65.1907 40.3223C64.9047 39.841 64.7617 39.2927 64.7617 38.6835H65.9306C65.9306 39.3171 66.1296 39.8227 66.5213 40.1882C66.913 40.5538 67.4415 40.7426 68.0944 40.7426C68.7099 40.7426 69.1762 40.5903 69.5058 40.2918C69.8353 39.9933 69.997 39.5851 69.997 39.0673C69.997 38.5495 69.8477 38.1535 69.5431 37.8733C69.2384 37.5931 68.6912 37.3128 67.8954 37.0387Z" fill="white"/>
<path d="M116.954 41.8394H81.4199V7.02393H116.954V41.8394ZM82.0168 41.2546H116.35V7.61485H82.0168V41.2546Z" fill="white"/>
<path d="M114.05 40.2495L113.733 40.2374L83.0488 38.9946L83.0613 38.6839L84.3297 8.62012L84.6468 8.6323L115.331 9.87506L115.318 10.1857L114.05 40.2495ZM83.7079 38.3976L113.441 39.6038L114.672 10.4721L84.939 9.26586L83.7079 38.3976Z" fill="white"/>
<path d="M111.133 38.6657L110.797 38.6352L84.6582 36.1436L84.6893 35.8147L87.2323 10.2041L87.568 10.2346L113.707 12.7262L113.676 13.0551L111.133 38.6657ZM85.3981 35.5466L110.523 37.9408L112.967 13.3232L87.8416 10.929L85.3981 35.5466Z" fill="white"/>
<path d="M108.206 37.0879L86.2637 33.2744L90.1559 11.7759L112.098 15.5894L108.206 37.0879ZM87.0968 32.7078L107.627 36.2777L111.271 16.1621L90.7404 12.5922L87.0968 32.7078Z" fill="white"/>
<path d="M105.258 35.5224L87.8672 30.3869L93.1086 13.3477L110.499 18.4832L105.258 35.5224ZM88.806 29.8873L104.748 34.5964L109.554 18.9766L93.6123 14.2675L88.806 29.8873Z" fill="white"/>
<path d="M102.261 33.9626L89.4531 27.4503L96.0998 14.9009L108.908 21.4132L102.261 33.9626ZM90.5288 27.1152L101.926 32.9087L107.839 21.7421L96.4417 15.9487L90.5288 27.1152Z" fill="white"/>
<path d="M99.1831 32.397L91.0566 24.4348L99.1831 16.4727L107.309 24.4348L99.1831 32.397ZM92.2442 24.4348L99.1893 31.2396L106.134 24.4348L99.1893 17.6301L92.2442 24.4348Z" fill="white"/>
<path d="M51.842 10.5574C52.327 10.5757 52.7995 10.4051 53.1601 10.0822C53.5145 9.75935 53.7073 9.30245 53.6886 8.82728C53.7073 8.35211 53.5145 7.89521 53.1601 7.57234C52.4016 6.93878 51.2824 6.93878 50.5239 7.57234C50.1695 7.89521 49.9767 8.35211 49.9954 8.82728C49.9767 9.30245 50.1695 9.75935 50.5239 10.0822C50.8845 10.4051 51.357 10.5757 51.842 10.5574Z" fill="white"/>
</svg>
