<svg width="58" height="58" viewBox="0 0 58 58" fill="none" xmlns="http://www.w3.org/2000/svg">
<g clip-path="url(#clip0_1_1147)">
<path d="M43.5761 36.315C43.8247 36.4014 43.9847 36.4389 44.0117 36.4467C44.3975 36.5363 44.7841 36.2961 44.8722 35.9092C44.9618 35.5227 44.722 35.1356 44.3376 35.0465C44.3072 35.0392 42.0554 34.4754 40.9963 32.407C40.8157 32.0536 40.3827 31.9146 40.0298 32.0955C39.677 32.2765 39.5381 32.7102 39.7188 33.0635C40.784 35.1424 42.7124 36.0162 43.5756 36.3165L43.5761 36.315Z" fill="white"/>
<path d="M11.9607 25.3592C12.824 25.6595 14.8786 26.1645 17.0002 25.1892C17.3607 25.0241 17.5187 24.5971 17.3539 24.2361C17.1891 23.875 16.7627 23.7168 16.4022 23.8819C14.2688 24.863 12.1687 23.8998 12.1492 23.8897C11.7904 23.722 11.363 23.8754 11.1936 24.2357C11.026 24.595 11.1792 25.023 11.5389 25.1927C11.5629 25.2043 11.7137 25.2733 11.9622 25.3597L11.9607 25.3592Z" fill="white"/>
<path d="M7.37371 21.3041C11.4309 9.56664 24.2687 3.32076 35.9907 7.3833C47.7128 11.4458 53.9505 24.3005 49.8932 36.038C45.836 47.7755 32.9982 54.0213 21.2762 49.9588C9.55418 45.8963 3.31651 33.0416 7.37371 21.3041ZM8.73008 21.7743C4.93239 32.7637 10.7708 44.798 21.7457 48.6006C32.7207 52.4033 44.7392 46.5573 48.5369 35.5678C52.3346 24.5784 46.4962 12.5441 35.5212 8.74145C24.5462 4.93877 12.5278 10.7848 8.73008 21.7743Z" fill="white"/>
<path d="M30.3354 23.755C31.5932 24.1908 33.2858 22.5965 34.116 20.194C34.9462 17.7915 34.5996 15.4906 33.3418 15.0548C32.0841 14.619 30.3914 16.2134 29.5612 18.6159C28.731 21.0184 29.0776 23.3193 30.3354 23.755Z" fill="white"/>
<path d="M22.6137 23.6071C23.8715 24.0429 25.5641 22.4485 26.3943 20.046C27.2245 17.6435 26.8779 15.3426 25.6202 14.9068C24.3624 14.4711 22.6698 16.0654 21.8395 18.4679C21.0093 20.8704 21.3559 23.1713 22.6137 23.6071Z" fill="white"/>
<path d="M36.435 28.3974C37.6928 28.8332 39.3854 27.2388 40.2156 24.8363C41.0458 22.4338 40.6992 20.1329 39.4415 19.6971C38.1837 19.2613 36.491 20.8557 35.6608 23.2582C34.8306 25.6607 35.1772 27.9616 36.435 28.3974Z" fill="white"/>
<path d="M13.5793 25.2912L13.5613 25.3905C12.2468 32.8278 16.6296 40.3029 23.7561 42.7719C30.8869 45.2424 38.9453 42.0799 42.5034 35.4198L42.5508 35.3307L41.3126 34.6673L41.2652 34.7564C38.0297 40.8143 30.7016 43.6911 24.2154 41.4432C17.7335 39.1968 13.7484 32.3996 14.9446 25.6357L14.9626 25.5364L13.5793 25.2912Z" fill="white"/>
</g>
<defs>
<clipPath id="clip0_1_1147">
<rect width="45" height="45.0465" fill="white" transform="matrix(0.944493 0.328532 -0.327762 0.94476 14.7646 0)"/>
</clipPath>
</defs>
</svg>
